#N canvas 88 101 906 578 16;
#X obj 60 81 osc~;
#X text 122 80 oscillator - generate a sine tone;
#X obj 61 111 *~;
#X floatatom 496 123 5 0 0 0 - - -;
#X msg 495 90 bang;
#X text 597 89 messages;
#X msg 549 90 440;
#X text 583 124 number control;
#X obj 59 166 line~;
#X obj 60 138 +~;
#X obj 59 195 print;
#X obj 200 337 scope~;
#X text 124 169 ramp generator;
#X text 120 194 debugging printout;
#X text 349 310 scope;
#X obj 62 340 out1~;
#X text 48 314 audio output;
#X obj 496 161 bng 15 250 50 0 empty empty empty 17 7 0 10 -262144
-1 -1;
#X text 531 156 button (bang message);
#X text 145 138 add/subtract;
#X text 141 112 multiply/divide;
#X obj 100 112 /~;
#X obj 100 139 -~;
#X text 74 51 OBJECT BOXES;
#X text 496 55 OTHER BOXES;
#X text 189 9 LIST OF PURE DATA OBJECTS FROM UNIT 1;
#X text 222 274 HELPER OBJECTS (PUT THESE IN YOUR FOLDER):;
