#N canvas 529 89 631 470 16;
#X obj 57 189 *~ 0.01;
#X obj 58 155 osc~ 440;
#X obj 58 224 out1~;
#X obj 157 190 *~ 0.01;
#X obj 158 225 out1~;
#X obj 254 190 *~ 0.01;
#X obj 255 225 out1~;
#X obj 354 191 *~ 0.01;
#X obj 355 226 out1~;
#X obj 158 156 osc~ 550;
#X obj 255 156 osc~ 660;
#X obj 355 157 osc~ 770;
#X connect 0 0 2 0;
#X connect 1 0 0 0;
#X connect 3 0 4 0;
#X connect 5 0 6 0;
#X connect 7 0 8 0;
#X connect 9 0 3 0;
#X connect 10 0 5 0;
#X connect 11 0 7 0;
