#N canvas 165 77 843 531 16;
#X floatatom 89 121 5 0 2000 0 - - -;
#X obj 89 175 osc~;
#X obj 89 204 *~ 0.1;
#X floatatom 160 96 7 0 2000 0 - - -;
#X obj 164 177 osc~;
#X obj 164 207 *~ 0.1;
#X obj 89 233 +~;
#X floatatom 319 124 5 0 100 0 - - -;
#X obj 89 278 *~;
#X msg 319 86 100;
#X msg 369 89 0;
#X msg 102 84 440;
#X msg 58 84 220;
#X msg 11 84 110;
#X msg 161 63 165;
#X msg 207 62 330;
#X msg 251 63 660;
#X obj 407 188 print;
#X obj 319 195 line~;
#X msg 319 158 \$1 250;
#X msg 160 119 \$1 2000;
#X obj 160 147 line~;
#X obj 90 309 *~ 0.01;
#X msg 319 19 bang;
#X obj 89 349 out1~;
#X obj 180 342 scope~;
#X connect 0 0 1 0;
#X connect 1 0 2 0;
#X connect 2 0 6 0;
#X connect 3 0 20 0;
#X connect 4 0 5 0;
#X connect 5 0 6 1;
#X connect 6 0 8 0;
#X connect 7 0 19 0;
#X connect 8 0 22 0;
#X connect 9 0 7 0;
#X connect 10 0 7 0;
#X connect 11 0 0 0;
#X connect 12 0 0 0;
#X connect 13 0 0 0;
#X connect 14 0 3 0;
#X connect 15 0 3 0;
#X connect 16 0 3 0;
#X connect 18 0 8 1;
#X connect 19 0 17 0;
#X connect 19 0 18 0;
#X connect 20 0 21 0;
#X connect 21 0 4 0;
#X connect 22 0 25 0;
#X connect 22 0 24 0;
#X connect 23 0 9 0;
#X connect 23 0 14 0;
