#N canvas -125 84 965 830 16;
#X obj 207 200 phasor~;
#X obj 188 497 scope~;
#N canvas 0 50 450 250 (subpatch) 0;
#X array waveform 11 float 3;
#A 0 0.707107 1 0.707107 1.32679e-06 -0.707105 -1 -0.707109 -3.98038e-06
0.707103 1 0.707111;
#X coords 0 1 11 -1 200 140 1;
#X restore 458 232 graph;
#X obj 209 392 out1~;
#X obj 343 358 line~;
#X obj 209 359 *~;
#X msg 344 326 1 50;
#X msg 396 327 0 50;
#X obj 210 326 +~;
#X obj 459 171 send waveform;
#X msg 449 82 cosinesum 128 0 1;
#X text 640 84 "128" point cosine into table;
#X msg 460 114 cosinesum 8 0 1;
#X obj 208 233 *~ 8;
#X msg 468 140 const 0;
#X obj 208 291 tabread4~ waveform;
#X obj 208 262 +~ 1;
#N canvas 0 50 450 250 (subpatch) 0;
#X array waveform2 11 float 3;
#A 0 0.707107 1 0.707107 0.228571 0.485712 0.728571 0.8 0.171429 0.371429
0.4 0.828571;
#X coords 0 1 11 -1 200 140 1;
#X restore 705 236 graph;
#X obj 190 21 phasor~ 1;
#X obj 191 50 *~ 8;
#X obj 191 79 +~ 1;
#X obj 207 140 *~ 1000;
#X obj 207 169 +~ 0;
#X obj 191 108 tabread~ waveform2;
#X connect 0 0 13 0;
#X connect 4 0 5 1;
#X connect 5 0 3 0;
#X connect 6 0 4 0;
#X connect 7 0 4 0;
#X connect 8 0 5 0;
#X connect 10 0 9 0;
#X connect 12 0 9 0;
#X connect 13 0 16 0;
#X connect 14 0 9 0;
#X connect 15 0 8 0;
#X connect 16 0 15 0;
#X connect 18 0 19 0;
#X connect 19 0 20 0;
#X connect 20 0 23 0;
#X connect 21 0 22 0;
#X connect 22 0 0 0;
#X connect 23 0 21 0;
#X connect 23 0 1 0;
