#N canvas 154 70 757 637 16;
#N canvas 0 50 450 250 (subpatch) 0;
#X array bob 12 float 3;
#A 0 0.257143 0.35714 0.542853 0.657137 0.685708 0.714279 0.871429
0.285712 0.48571 0.728565 0.685708 0.942848;
#X coords 0 1 12 -1 200 140 1;
#X restore 498 184 graph;
#X floatatom 127 326 5 0 0 0 - - -;
#X obj 128 359 *~ 1000;
#X obj 128 388 +~ 0;
#X obj 26 422 peek~;
#X obj 130 432 osc~;
#X obj 130 467 out1~;
#X obj 28 69 metro 500;
#X obj 32 143 float;
#X text 90 145 store a number;
#X obj 29 116 bng 15 250 50 0 empty empty empty 17 7 0 10 -262144 -1
-1;
#X floatatom 88 113 5 0 0 0 - - -;
#X floatatom 126 245 5 0 0 0 - - -;
#X obj 489 83 + 1;
#X obj 540 83 + 1;
#X obj 485 58 bng 15 250 50 0 empty empty empty 17 7 0 10 -262144 -1
-1;
#X obj 488 122 print;
#X obj 596 107 + 1;
#X obj 665 110 + 1;
#X obj 125 183 +;
#X obj 128 277 tabread bob;
#X obj 126 212 mod;
#X floatatom 500 420 5 0 0 0 - - -;
#X floatatom 500 488 5 0 0 0 - - -;
#X obj 169 183 r increment;
#X obj 221 214 r modulus;
#X msg 331 292 \; increment 1 \; modulus 12;
#X obj 22 33 r onoff;
#X obj 133 38 r metrotime;
#X msg 325 109 \; increment 3 \; modulus 7 \; metrotime 150 \; onoff
1;
#X msg 353 240 \; onoff 0;
#X floatatom 497 549 5 0 0 0 - - -;
#X obj 494 610 tgl 15 0 empty empty empty 17 7 0 10 -262144 -1 -1 0
1;
#X obj 499 385 r increment;
#X obj 499 455 r modulus;
#X obj 496 516 r metrotime;
#X obj 494 578 r onoff;
#X obj 263 387 s increment;
#X obj 265 447 s modulus;
#X obj 261 506 s metrotime;
#X obj 259 568 s onoff;
#X floatatom 264 357 5 0 0 0 - - -;
#X floatatom 265 420 5 0 12 0 - - -;
#X floatatom 261 479 5 0 0 0 - - -;
#X obj 261 546 tgl 15 0 empty empty empty 17 7 0 10 -262144 -1 -1 0
1;
#X connect 1 0 2 0;
#X connect 2 0 3 0;
#X connect 3 0 4 0;
#X connect 3 0 5 0;
#X connect 5 0 6 0;
#X connect 7 0 10 0;
#X connect 8 0 19 0;
#X connect 10 0 8 0;
#X connect 11 0 8 1;
#X connect 12 0 20 0;
#X connect 13 0 14 0;
#X connect 13 0 16 0;
#X connect 14 0 13 1;
#X connect 15 0 13 0;
#X connect 17 0 18 0;
#X connect 18 0 17 0;
#X connect 19 0 21 0;
#X connect 20 0 1 0;
#X connect 21 0 12 0;
#X connect 21 0 8 1;
#X connect 24 0 19 1;
#X connect 25 0 21 1;
#X connect 27 0 7 0;
#X connect 28 0 7 1;
#X connect 33 0 22 0;
#X connect 34 0 23 0;
#X connect 35 0 31 0;
#X connect 36 0 32 0;
#X connect 41 0 37 0;
#X connect 42 0 38 0;
#X connect 43 0 39 0;
#X connect 44 0 40 0;
