#N struct line-label float x float y float z symbol label;
#N canvas 2 -124 1074 812 16;
#N canvas 0 50 450 250 (subpatch) 0;
#X array bob 12 float 3;
#A 0 1.90735e-06 -0.157142 -0.171428 0.457143 0.185714 -0.457145 -0.400002
0.0571482 0.0428624 -0.142857 0.357147 0.214284;
#X coords 0 1 12 -1 200 140 1;
#X restore 498 184 graph;
#X obj 113 508 out1~;
#X obj 489 83 + 1;
#X obj 540 83 + 1;
#X obj 485 58 bng 15 250 50 0 empty empty empty 17 7 0 10 -262144 -1
-1;
#X obj 488 122 print;
#X obj 596 107 + 1;
#X obj 665 110 + 1;
#X floatatom 130 304 5 0 0 0 - - -;
#X obj 130 332 phasor~;
#X obj 130 361 *~ 9;
#X obj 130 390 +~ 1;
#X obj 130 432 tabread4~ bob;
#X obj 281 323 phasor~;
#X obj 281 352 *~ 9;
#X obj 281 381 +~ 1;
#X obj 281 423 tabread4~ bob;
#X obj 279 468 spectrum~;
#X obj 131 272 mtof;
#X floatatom 130 242 5 0 0 0 - - -;
#X obj 420 322 phasor~;
#X obj 420 351 *~ 9;
#X obj 420 380 +~ 1;
#X obj 420 422 tabread4~ bob;
#X floatatom 281 295 5 0 0 0 - - -;
#X obj 282 263 mtof;
#X floatatom 281 233 5 0 0 0 - - -;
#X floatatom 418 292 5 0 0 0 - - -;
#X obj 419 260 mtof;
#X floatatom 418 230 5 0 0 0 - - -;
#X connect 2 0 3 0;
#X connect 2 0 5 0;
#X connect 3 0 2 1;
#X connect 4 0 2 0;
#X connect 6 0 7 0;
#X connect 7 0 6 0;
#X connect 8 0 9 0;
#X connect 9 0 10 0;
#X connect 10 0 11 0;
#X connect 11 0 12 0;
#X connect 12 0 1 0;
#X connect 12 0 17 0;
#X connect 13 0 14 0;
#X connect 14 0 15 0;
#X connect 15 0 16 0;
#X connect 16 0 17 0;
#X connect 16 0 1 0;
#X connect 18 0 8 0;
#X connect 19 0 18 0;
#X connect 20 0 21 0;
#X connect 21 0 22 0;
#X connect 22 0 23 0;
#X connect 23 0 1 0;
#X connect 24 0 13 0;
#X connect 25 0 24 0;
#X connect 26 0 25 0;
#X connect 27 0 20 0;
#X connect 28 0 27 0;
#X connect 29 0 28 0;
