#N canvas 185 70 803 976 16;
#X obj 47 39 osc~;
#X text 100 37 oscillator - generate a sine tone;
#X obj 87 67 *~;
#X floatatom 359 99 5 0 0 0 - - -;
#X msg 358 71 bang;
#X text 452 71 messages;
#X msg 409 70 440;
#X obj 48 94 line~;
#X text 130 92 generate a ramp;
#X obj 48 126 print;
#X text 105 128 debugger;
#N canvas 0 50 450 250 (subpatch) 0;
#X array your-name-here 100 float 3;
#A 0 0 0 0 0 0 0 0 0 0 0 0 0 0 0 0 0 0 0 0 0 0 0 0 0 0 0 0 0 0 0 0
0 0 0 0 0 0 0 0 0 0 0 0 0 0 0 0 0 0 0 0 0 0 0 0 0 0 0 0 0 0 0 0 0 0
0 0 0 0 0 0 0 0 0 0 0 0 0 0 0 0 0 0 0 0 0 0 0 0 0 0 0 0 0 0 0 0 0 0
0;
#X coords 0 1 100 -1 200 140 1;
#X restore 442 373 graph;
#X text 663 437 arrays;
#X obj 54 356 phasor~;
#X obj 59 474 +;
#X obj 50 544 adc~;
#X obj 58 388 tabwrite~;
#X obj 57 444 tabread4~;
#X obj 50 513 soundfiler;
#X obj 47 67 +~;
#X text 126 67 (etc.) arithmetic;
#X text 455 97 numbers;
#X text 135 358 sawtooth;
#X obj 59 417 tabread~;
#X text 161 384 write to a table;
#X text 152 415 read from a table;
#X text 161 443 read from a table;
#X text 153 542 raw audio input/output;
#X obj 99 544 dac~;
#X text 151 479 control arithmetic;
#X obj 97 474 *;
#X obj 360 127 bng 15 250 50 0 empty empty empty 17 7 0 10 -262144
-1 -1;
#X text 393 124 button;
#X obj 45 162 scope~;
#X obj 609 72 out1~;
#X text 584 40 audio output;
#X text 649 166 scope;
#X obj 457 524 peek~;
#X text 534 527 another helper object, f 14;
#X text 192 8 ------------------ week 1 --------------;
#X text 139 325 ----------------- week 2 --------------------;
#X text 156 511 arrays to/from soundfiles;
#X text 103 611 ----------------- week 3 --------------------;
#X obj 86 641 mtof;
#X obj 133 641 mtof~;
#X text 186 640 pitch conversion;
#X obj 83 673 tabread;
#X obj 85 703 send;
#X obj 87 728 receive;
#X text 171 704 non-local connection;
#X obj 87 756 float;
#X obj 402 670 metro;
#X obj 87 784 mod;
#X obj 144 756 f;
#X obj 402 640 delay;
#X text 487 698 test value;
#X text 165 785 integer modulus;
#X obj 134 703 s;
#X obj 164 728 r;
#X text 180 760 store a number;
#X text 484 639 delayed bang message;
#X text 483 668 repeated bang message;
#X obj 401 758 tgl 15 0 empty empty empty 17 7 0 10 -262144 -1 -1 0
1;
#X text 424 753 toggle;
#X obj 404 780 hsl 101 15 0 100 0 0 empty empty empty -2 -8 0 10 -262144
-1 -1 0 1;
#X text 514 778 slider;
#X obj 401 698 route;
#X obj 401 726 loadbang;
#X text 171 668 control table read;
#X obj 54 874 inlet;
#N canvas 0 50 450 300 (subpatch) 0;
#X restore 56 848 pd;
#X text 103 844 subpatches;
#X obj 115 875 inlet~;
#X obj 54 902 outlet;
#X obj 121 902 outlet~;
#X text 200 865 inlets and outlets to subpatches, f 11;
#X obj 54 930 clone;
#X text 130 930 make copies of a patch;
#X obj 407 854 trigger;
#X obj 484 854 t;
#X text 517 855 messages in an order;
#X obj 411 884 pack;
#X obj 458 884 unpack;
#X text 529 885 assembling lists;
#X obj 456 912 moses;
#X text 515 913 split stream of numbers;
#X text 106 820 ----------------- week 4 --------------------;
