#N canvas 328 114 674 527 16;
#X floatatom 206 90 5 0 0 0 - - -;
#X obj 188 25 inlet;
#X obj 188 54 mtof;
#X obj 431 440 outlet~;
#X obj 188 125 *;
#X obj 278 117 r pitchscale;
#X obj 164 214 phasor~;
#X obj 164 243 *~ 44100;
#X obj 164 272 +~ 1;
#X obj 164 301 tabread4~ recording1;
#X floatatom 480 204 5 0 0 0 - - -;
#X obj 441 389 *~;
#X obj 515 364 line~;
#X obj 515 393 *~;
#X msg 509 321 1 10;
#X obj 575 292 del 10;
#X msg 575 321 0 3000;
#X obj 570 271 bng 15 250 50 0 empty empty empty 17 7 0 10 -262144
-1 -1;
#X connect 1 0 2 0;
#X connect 2 0 0 0;
#X connect 2 0 4 0;
#X connect 4 0 6 0;
#X connect 4 0 17 0;
#X connect 4 0 14 0;
#X connect 5 0 4 1;
#X connect 6 0 7 0;
#X connect 7 0 8 0;
#X connect 8 0 9 0;
#X connect 9 0 11 0;
#X connect 10 0 14 0;
#X connect 10 0 17 0;
#X connect 11 0 3 0;
#X connect 12 0 13 0;
#X connect 12 0 13 1;
#X connect 13 0 11 1;
#X connect 14 0 12 0;
#X connect 15 0 16 0;
#X connect 16 0 12 0;
#X connect 17 0 15 0;
