#N canvas -1 54 1060 703 16;
#N canvas 525 163 450 300 floyd 0;
#X obj 104 105 +;
#X obj 68 53 inlet;
#X obj 169 51 inlet;
#X obj 100 173 outlet;
#X connect 0 0 3 0;
#X connect 1 0 0 0;
#X connect 2 0 0 1;
#X restore 67 309 pd floyd;
#X floatatom 52 279 5 0 0 0 - - -;
#X floatatom 118 272 5 0 0 0 - - -;
#X floatatom 71 346 5 0 0 0 - - -;
#X obj 222 348 4.b.abstraction;
#X obj 242 380 4.b.abstraction;
#X obj 206 535 out1~;
#X obj 271 409 4.b.abstraction;
#X obj 283 445 4.b.abstraction;
#X obj 307 474 4.b.abstraction;
#X obj 321 505 4.b.abstraction;
#X msg 61 53 440 \, 550 \, 660;
#X obj 122 74 print;
#X floatatom 496 252 5 0 0 0 - - -;
#X obj 323 314 route 0 1 2 3 4 5;
#X obj 336 218 f;
#X obj 381 187 + 1;
#X obj 381 216 mod 6;
#X obj 333 189 bng 15 250 50 0 empty empty empty 17 7 0 10 -262144
-1 -1;
#X floatatom 336 247 5 0 0 0 - - -;
#X obj 334 280 pack;
#X obj 156 199 pack;
#X obj 156 228 print;
#X floatatom 135 136 5 0 0 0 - - -;
#X floatatom 197 153 5 0 0 0 - - -;
#X obj 333 158 trigger bang float;
#X floatatom 413 82 5 0 0 0 - - -;
#X obj 511 314 print;
#X msg 213 39 69 \, 73 \, 76 \, 78 \, 79 \, 83 \, 84 \, 90 \, 92;
#N canvas 0 50 450 250 (subpatch) 0;
#X array recording1 206618 float 2;
#X coords 0 1 206618 -1 200 140 1 0 0;
#X restore 828 73 graph;
#X obj 823 228 adc~;
#X obj 813 261 tabwrite~ recording1;
#X obj 912 239 bng 15 250 50 0 empty empty empty 17 7 0 10 -262144
-1 -1;
#X obj 543 532 out1~;
#X obj 625 315 route 0 1 2 3 4 5;
#X obj 866 368 s pitchscale;
#X floatatom 873 303 5 0 0 0 - - -;
#X obj 873 331 / 10000;
#X obj 208 6 metro 500;
#X obj 136 9 tgl 15 0 empty empty empty 17 7 0 10 -262144 -1 -1 0 1
;
#X obj 413 110 moses 60;
#X floatatom 780 255 5 0 0 0 - - -;
#X obj 620 221 f;
#X obj 665 190 + 1;
#X obj 665 219 mod 6;
#X obj 562 182 bng 15 250 50 0 empty empty empty 17 7 0 10 -262144
-1 -1;
#X floatatom 620 250 5 0 0 0 - - -;
#X obj 618 283 pack;
#X obj 558 152 trigger bang float;
#X obj 702 620 soundfiler;
#X obj 700 548 loadbang;
#X obj 559 345 4.b.sampler;
#X obj 579 377 4.b.sampler;
#X obj 608 406 4.b.sampler;
#X obj 620 442 4.b.sampler;
#X obj 644 472 4.b.sampler;
#X obj 659 502 4.b.sampler;
#X msg 691 587 read -resize piano-440.wav recording1;
#X floatatom 633 645 7 0 0 0 - - -;
#X obj 705 650 s sampler-nsamps;
#X floatatom 554 125 5 0 0 0 - - -;
#X obj 906 473 bng 15 250 50 0 empty empty empty 17 7 0 10 -262144
-1 -1;
#X obj 585 13 tgl 15 0 empty empty empty 17 7 0 10 -262144 -1 -1 1
1;
#X obj 653 10 metro 150;
#X obj 653 40 f;
#X obj 708 43 + 13;
#X obj 708 72 mod 21;
#X obj 708 101 + 48;
#X connect 0 0 3 0;
#X connect 1 0 0 0;
#X connect 2 0 0 1;
#X connect 4 0 6 0;
#X connect 5 0 6 0;
#X connect 7 0 6 0;
#X connect 8 0 6 0;
#X connect 9 0 6 0;
#X connect 10 0 6 0;
#X connect 11 0 12 0;
#X connect 13 0 20 1;
#X connect 14 0 4 0;
#X connect 14 1 5 0;
#X connect 14 2 7 0;
#X connect 14 3 8 0;
#X connect 14 4 9 0;
#X connect 14 5 10 0;
#X connect 15 0 16 0;
#X connect 15 0 19 0;
#X connect 16 0 17 0;
#X connect 17 0 15 1;
#X connect 18 0 15 0;
#X connect 19 0 20 0;
#X connect 20 0 14 0;
#X connect 21 0 22 0;
#X connect 23 0 21 0;
#X connect 24 0 21 1;
#X connect 25 0 18 0;
#X connect 25 1 13 0;
#X connect 26 0 40 0;
#X connect 28 0 26 0;
#X connect 30 0 31 0;
#X connect 32 0 31 0;
#X connect 34 0 51 0;
#X connect 34 1 52 0;
#X connect 34 2 53 0;
#X connect 34 3 54 0;
#X connect 34 4 55 0;
#X connect 34 5 56 0;
#X connect 36 0 37 0;
#X connect 37 0 35 0;
#X connect 38 0 28 0;
#X connect 39 0 38 0;
#X connect 40 0 48 0;
#X connect 40 1 25 0;
#X connect 41 0 47 1;
#X connect 42 0 43 0;
#X connect 42 0 46 0;
#X connect 43 0 44 0;
#X connect 44 0 42 1;
#X connect 45 0 42 0;
#X connect 46 0 47 0;
#X connect 47 0 34 0;
#X connect 48 0 45 0;
#X connect 48 1 41 0;
#X connect 49 0 58 0;
#X connect 49 0 59 0;
#X connect 50 0 57 0;
#X connect 51 0 33 0;
#X connect 52 0 33 0;
#X connect 53 0 33 0;
#X connect 54 0 33 0;
#X connect 55 0 33 0;
#X connect 56 0 33 0;
#X connect 57 0 49 0;
#X connect 60 0 48 0;
#X connect 61 0 36 0;
#X connect 61 0 57 0;
#X connect 62 0 63 0;
#X connect 63 0 64 0;
#X connect 64 0 65 0;
#X connect 65 0 66 0;
#X connect 66 0 64 1;
#X connect 66 0 67 0;
#X connect 67 0 26 0;
