#N canvas 505 136 516 434 16;
#X floatatom 193 88 5 0 0 0 - - -;
#X obj 196 228 osc~;
#X obj 196 257 *~;
#X obj 270 232 line~;
#X obj 270 261 *~;
#X msg 264 189 1 10;
#X obj 330 160 del 10;
#X msg 330 189 0 3000;
#X obj 325 139 bng 15 250 50 0 empty empty empty 17 7 0 10 -262144
-1 -1;
#X obj 188 25 inlet;
#X obj 188 54 mtof;
#X obj 196 288 outlet~;
#X connect 0 0 1 0;
#X connect 0 0 5 0;
#X connect 0 0 8 0;
#X connect 1 0 2 0;
#X connect 2 0 11 0;
#X connect 3 0 4 0;
#X connect 3 0 4 1;
#X connect 4 0 2 1;
#X connect 5 0 3 0;
#X connect 6 0 7 0;
#X connect 7 0 3 0;
#X connect 8 0 6 0;
#X connect 9 0 10 0;
#X connect 10 0 0 0;
