#N canvas -47 54 997 680 16;
#X obj 558 394 out1~;
#X obj 552 260 f;
#X obj 597 229 + 1;
#X obj 597 258 mod 6;
#X obj 549 231 bng 15 250 50 0 empty empty empty 17 7 0 10 -262144
-1 -1;
#X floatatom 552 289 5 0 0 0 - - -;
#X obj 623 319 pack;
#X floatatom 333 99 5 0 0 0 - - -;
#X msg 334 71 69 \, 73 \, 76 \, 78 \, 79 \, 83 \, 84 \, 90 \, 92;
#N canvas 0 50 450 250 (subpatch) 0;
#X array recording1 206618 float 2;
#X coords 0 1 206618 -1 200 140 1 0 0;
#X restore 760 58 graph;
#X obj 811 507 adc~;
#X obj 801 540 tabwrite~ recording1;
#X obj 900 518 bng 15 250 50 0 empty empty empty 17 7 0 10 -262144
-1 -1;
#X obj 364 384 out1~;
#X obj 286 620 s pitchscale;
#X floatatom 293 555 5 0 0 0 - - -;
#X obj 293 583 / 10000;
#X obj 329 38 metro 500;
#X obj 329 5 tgl 15 0 empty empty empty 17 7 0 10 -262144 -1 -1 0 1
;
#X obj 337 131 moses 60;
#X obj 480 609 soundfiler;
#X obj 470 515 loadbang;
#X msg 469 576 read -resize piano-440.wav recording1;
#X floatatom 411 634 7 0 0 0 - - -;
#X obj 483 639 s sampler-nsamps;
#X obj 473 546 bng 15 250 50 0 empty empty empty 17 7 0 10 -262144
-1 -1;
#X obj 98 41 tgl 15 0 empty empty empty 17 7 0 10 -262144 -1 -1 0 1
;
#X obj 100 65 metro 150;
#X obj 100 95 f;
#X obj 155 98 + 13;
#X obj 147 141 mod 21;
#X obj 606 199 t b f;
#X obj 364 352 clone 4.b.sampler 20;
#X obj 556 353 clone 4.b.abstraction 20;
#X obj 287 262 f;
#X obj 332 231 + 1;
#X obj 332 260 mod 6;
#X obj 284 233 bng 15 250 50 0 empty empty empty 17 7 0 10 -262144
-1 -1;
#X floatatom 287 291 5 0 0 0 - - -;
#X obj 358 321 pack;
#X obj 341 201 t b f;
#X msg 302 519 3.37;
#X connect 1 0 2 0;
#X connect 1 0 5 0;
#X connect 2 0 3 0;
#X connect 3 0 1 1;
#X connect 4 0 1 0;
#X connect 5 0 6 0;
#X connect 6 0 33 0;
#X connect 7 0 19 0;
#X connect 8 0 7 0;
#X connect 10 0 11 0;
#X connect 12 0 11 0;
#X connect 15 0 16 0;
#X connect 16 0 14 0;
#X connect 17 0 8 0;
#X connect 18 0 17 0;
#X connect 19 0 40 0;
#X connect 19 1 31 0;
#X connect 20 0 23 0;
#X connect 20 0 24 0;
#X connect 21 0 25 0;
#X connect 22 0 20 0;
#X connect 25 0 22 0;
#X connect 25 0 41 0;
#X connect 26 0 27 0;
#X connect 27 0 28 0;
#X connect 28 0 29 0;
#X connect 28 0 19 0;
#X connect 29 0 30 0;
#X connect 30 0 28 1;
#X connect 31 0 4 0;
#X connect 31 1 6 1;
#X connect 32 0 13 0;
#X connect 33 0 0 0;
#X connect 34 0 35 0;
#X connect 34 0 38 0;
#X connect 35 0 36 0;
#X connect 36 0 34 1;
#X connect 37 0 34 0;
#X connect 38 0 39 0;
#X connect 39 0 32 0;
#X connect 40 0 37 0;
#X connect 40 1 39 1;
#X connect 41 0 15 0;
