#N struct line-label float x float y float z symbol label;
#N canvas 23 46 1037 687 16;
#X obj 24 405 out1~;
#X obj 132 217 osc~;
#X obj 132 176 +~;
#X floatatom 118 86 5 0 0 0 - - -;
#X obj 118 114 mtof;
#X obj 217 121 osc~;
#X obj 217 150 *~;
#X floatatom 269 156 5 0 1000 0 - - -;
#X floatatom 219 28 5 0 0 0 - - -;
#X obj 219 56 mtof;
#X floatatom 230 86 8 0 0 0 - - -;
#X floatatom 142 143 5 0 0 0 - - -;
#X obj 118 394 spectrum~;
#X text 281 32 modulating frequency;
#X text 324 156 depth of modulation (=index);
#X text 82 41 carrier frequency, f 9;
#X obj 132 246 *~;
#X obj 231 249 osc~;
#X obj 231 278 peek~;
#X floatatom 227 214 5 0 1000 0 - - -;
#X text 281 251 amplitude modulation frequency;
#X connect 1 0 16 0;
#X connect 2 0 1 0;
#X connect 3 0 4 0;
#X connect 4 0 2 0;
#X connect 4 0 11 0;
#X connect 5 0 6 0;
#X connect 6 0 2 1;
#X connect 7 0 6 1;
#X connect 8 0 9 0;
#X connect 9 0 5 0;
#X connect 9 0 10 0;
#X connect 16 0 0 0;
#X connect 16 0 12 0;
#X connect 17 0 18 0;
#X connect 17 0 16 1;
#X connect 19 0 17 0;
