#N struct line-label float x float y float z symbol label;
#N canvas 75 69 1037 687 16;
#X obj 24 405 out1~;
#X obj 118 394 spectrum~;
#X obj 132 246 *~;
#X obj 231 249 osc~;
#X obj 231 278 peek~;
#X floatatom 227 214 5 0 1000 0 - - -;
#X text 281 251 amplitude modulation frequency;
#X obj 132 139 adc~;
#X connect 2 0 0 0;
#X connect 2 0 1 0;
#X connect 3 0 4 0;
#X connect 3 0 2 1;
#X connect 5 0 3 0;
#X connect 7 0 2 0;
