#N canvas 238 97 627 412 16;
#X obj 86 154 metro 150;
#X obj 92 123 tgl 15 0 empty empty empty 17 7 0 10 -262144 -1 -1 0
1;
#X obj 81 237 +;
#X floatatom 120 237 5 0 0 0 - - -;
#X obj 77 199 random 100;
#X msg 185 157 seed 3;
#X floatatom 77 270 5 0 0 0 - - -;
#X text 53 66 comment;
#X connect 0 0 4 0;
#X connect 1 0 0 0;
#X connect 2 0 6 0;
#X connect 3 0 2 1;
#X connect 4 0 2 0;
#X connect 5 0 4 0;
