#N canvas -46 40 1088 717 12;
#X obj 115 290 out1~;
#X obj 111 72 noise~;
#X obj 114 100 +~ 1;
#X obj 114 124 *~ 0.5;
#X obj 114 148 *~ 2000;
#X obj 114 245 osc~;
#X obj 107 213 samphold~;
#X obj 165 176 phasor~ 10;
#X obj 282 274 out1~;
#X obj 281 229 osc~;
#X obj 279 128 metro 100;
#X obj 278 93 tgl 15 0 empty empty empty 17 7 0 10 -262144 -1 -1 1
1;
#X obj 282 185 random 2000;
#X obj 419 363 out1~;
#X obj 395 53 noise~;
#X obj 398 81 +~ 1;
#X obj 398 105 *~ 0.5;
#X obj 398 129 *~ 2000;
#X obj 418 327 samphold~;
#X obj 507 325 phasor~;
#X floatatom 507 290 5 0 0 0 - - -;
#X obj 506 354 out1~;
#X obj 483 133 array define voice;
#X obj 489 100 soundfiler;
#X msg 489 73 read -resize voice.wav voice;
#X obj 417 259 tabplay~ voice;
#X obj 422 215 bng 15 250 50 0 empty empty empty 17 7 0 10 -262144
-1 -1;
#X obj 737 341 out1~;
#X obj 740 301 osc~;
#X obj 719 198 phasor~;
#X obj 728 269 *~ 2000;
#X floatatom 716 175 5 0 0 0 - - -;
#X obj 721 237 samphold~;
#X obj 788 198 phasor~;
#X floatatom 785 175 5 0 0 0 - - -;
#X obj 281 523 scope~;
#X obj 853 202 phasor~;
#X floatatom 850 179 5 0 0 0 - - -;
#X connect 1 0 2 0;
#X connect 2 0 3 0;
#X connect 3 0 4 0;
#X connect 4 0 6 0;
#X connect 5 0 0 0;
#X connect 6 0 5 0;
#X connect 7 0 6 1;
#X connect 9 0 8 0;
#X connect 10 0 12 0;
#X connect 11 0 10 0;
#X connect 12 0 9 0;
#X connect 14 0 15 0;
#X connect 15 0 16 0;
#X connect 16 0 17 0;
#X connect 18 0 13 0;
#X connect 19 0 18 1;
#X connect 20 0 19 0;
#X connect 24 0 23 0;
#X connect 25 0 21 0;
#X connect 25 0 18 0;
#X connect 26 0 25 0;
#X connect 28 0 27 0;
#X connect 29 0 32 0;
#X connect 30 0 28 0;
#X connect 31 0 29 0;
#X connect 32 0 30 0;
#X connect 32 0 35 0;
#X connect 33 0 32 1;
#X connect 34 0 33 0;
#X connect 36 0 32 1;
#X connect 37 0 36 0;
