#N struct line-label float x float y float z symbol label;
#N canvas 124 56 893 743 16;
#X obj 368 23 tgl 15 0 empty empty empty 17 7 0 10 -262144 -1 -1 1
1;
#X obj 368 43 metro 1000;
#X obj 295 162 osc~ 440;
#X obj 295 191 *~;
#X obj 386 194 *~;
#X obj 382 153 line~;
#X msg 379 108 1 10;
#X msg 437 109 0 300;
#X obj 441 77 del 10;
#X obj 185 286 out1~;
#X obj 472 289 out1~;
#X obj 181 258 delwrite~ delay1 10000;
#X obj 33 404 spectrum~;
#X obj 578 148 delread~ delay2 2;
#X obj 565 88 delwrite~ delay2 10000;
#X obj 182 219 noise~;
#X obj 477 246 delread~ delay1 2;
#X connect 0 0 1 0;
#X connect 1 0 6 0;
#X connect 1 0 8 0;
#X connect 2 0 3 0;
#X connect 4 0 3 1;
#X connect 5 0 4 0;
#X connect 5 0 4 1;
#X connect 6 0 5 0;
#X connect 7 0 5 0;
#X connect 8 0 7 0;
#X connect 15 0 11 0;
#X connect 15 0 12 0;
#X connect 16 0 10 0;
#X connect 16 0 12 0;
