#N canvas 28 54 1020 648 16;
#X obj 368 23 tgl 15 0 empty empty empty 17 7 0 10 -262144 -1 -1 0
1;
#X obj 295 191 *~;
#X obj 386 194 *~;
#X obj 382 153 line~;
#X msg 379 108 1 10;
#X obj 441 77 del 10;
#X obj 266 483 out1~;
#X obj 504 470 out1~;
#X obj 278 427 delwrite~ delay1 10000;
#X obj 707 80 delread~ delay2 2;
#X obj 701 133 delwrite~ delay2 10000;
#X obj 368 43 metro 2000;
#X msg 437 109 0 100;
#X obj 320 59 bng 15 250 50 0 empty empty empty 17 7 0 10 -262144 -1
-1;
#X floatatom 616 123 5 0 0 0 - - -;
#X obj 179 343 *~;
#X floatatom 106 166 5 0 100 0 - - -;
#X obj 106 194 / 100;
#X msg 106 223 \$1 30;
#X obj 106 252 line~;
#X floatatom 146 48 5 0 0 0 - - -;
#X obj 146 76 mtof;
#X obj 296 162 osc~;
#X obj 498 208 del 20;
#X obj 493 268 f;
#X obj 616 151 t b f;
#X obj 663 333 line~;
#X obj 470 351 *~;
#X msg 659 289 0 20;
#X msg 712 289 1 20;
#X obj 462 308 delread~ delay1 250;
#X obj 794 292 delread4~ delay1 250;
#X obj 793 347 out1~;
#X floatatom 799 196 5 0 0 0 - - -;
#X obj 799 253 line~;
#X msg 799 224 \$1 1000;
#X connect 0 0 11 0;
#X connect 1 0 6 0;
#X connect 1 0 8 0;
#X connect 2 0 1 1;
#X connect 3 0 2 0;
#X connect 3 0 2 1;
#X connect 4 0 3 0;
#X connect 5 0 12 0;
#X connect 11 0 4 0;
#X connect 11 0 5 0;
#X connect 12 0 3 0;
#X connect 13 0 4 0;
#X connect 13 0 5 0;
#X connect 14 0 25 0;
#X connect 15 0 8 0;
#X connect 16 0 17 0;
#X connect 17 0 18 0;
#X connect 18 0 19 0;
#X connect 19 0 15 0;
#X connect 20 0 21 0;
#X connect 21 0 22 0;
#X connect 21 0 13 0;
#X connect 22 0 1 0;
#X connect 23 0 24 0;
#X connect 23 0 29 0;
#X connect 24 0 30 0;
#X connect 25 0 23 0;
#X connect 25 0 28 0;
#X connect 25 1 24 1;
#X connect 26 0 27 1;
#X connect 27 0 15 1;
#X connect 27 0 7 0;
#X connect 28 0 26 0;
#X connect 29 0 26 0;
#X connect 30 0 27 0;
#X connect 31 0 32 0;
#X connect 33 0 35 0;
#X connect 34 0 31 0;
#X connect 35 0 34 0;
