#N struct line-label float x float y float z symbol label;
#N canvas -133 48 1079 782 16;
#X obj 171 431 out1~;
#X obj 490 395 delwrite~ delay1 10000;
#X floatatom 497 312 5 0 0 0 - - -;
#X obj 444 346 *~;
#X floatatom 325 221 5 0 100 0 - - -;
#X obj 324 249 / 100;
#X msg 324 278 \$1 30;
#X obj 324 307 line~;
#X obj 427 211 *~;
#X obj 545 179 *~;
#X obj 493 147 line~;
#X msg 538 93 1 10;
#X obj 600 62 del 10;
#X msg 596 94 0 100;
#X obj 479 44 bng 15 250 50 0 empty empty empty 17 7 0 10 -262144 -1
-1;
#X obj 428 182 noise~;
#X obj 364 486 spectrum~;
#X floatatom 832 260 5 0 0 0 - - -;
#X obj 805 334 *~;
#X floatatom 752 185 5 0 100 0 - - -;
#X obj 750 214 / 100;
#X msg 752 243 \$1 30;
#X obj 752 277 line~;
#X obj 835 296 delread~ delay2 250;
#X obj 798 378 delwrite~ delay2 10000;
#X obj 498 345 delread4~ delay1 250;
#X connect 2 0 25 0;
#X connect 3 0 1 0;
#X connect 3 0 0 0;
#X connect 4 0 5 0;
#X connect 5 0 6 0;
#X connect 6 0 7 0;
#X connect 7 0 3 0;
#X connect 8 0 1 0;
#X connect 8 0 24 0;
#X connect 9 0 8 1;
#X connect 10 0 9 0;
#X connect 10 0 9 1;
#X connect 11 0 10 0;
#X connect 12 0 13 0;
#X connect 13 0 10 0;
#X connect 14 0 11 0;
#X connect 14 0 12 0;
#X connect 15 0 8 0;
#X connect 17 0 23 0;
#X connect 18 0 24 0;
#X connect 19 0 20 0;
#X connect 20 0 21 0;
#X connect 21 0 22 0;
#X connect 22 0 18 0;
#X connect 23 0 18 1;
#X connect 25 0 3 1;
#X connect 25 0 16 0;
