#N canvas 101 276 560 325 12;
#X text 75 30 abstraction for 6.e..reverb;
#X obj 149 157 *~;
#X obj 133 119 r feedback;
#X obj 46 121 inlet~;
#X obj 258 233 outlet~;
#X obj 239 132 delread~ delay-\$1 \$1;
#X obj 150 183 delwrite~ delay-\$1 \$1;
#X connect 1 0 6 0;
#X connect 2 0 1 0;
#X connect 3 0 6 0;
#X connect 5 0 1 1;
#X connect 5 0 4 0;
