#N canvas 213 58 657 589 16;
#X obj 460 292 out1~;
#X floatatom 403 146 5 0 100 0 - - -;
#X obj 402 174 / 100;
#X obj 402 203 s feedback;
#X obj 82 62 adc~;
#X obj 115 381 out1~;
#X obj 131 148 6.e.comb-filter 30;
#X obj 139 217 6.e.comb-filter 31.3456;
#X obj 149 248 6.e.comb-filter 33.2343;
#X obj 150 292 6.e.comb-filter 35.345;
#X obj 160 323 6.e.comb-filter 37.2345;
#X obj 217 377 6.e.comb-filter 41.8755;
#X obj 227 408 6.e.comb-filter 40.3465;
#X obj 228 452 6.e.comb-filter 44.6573;
#X obj 238 483 6.e.comb-filter 45.8988;
#X connect 1 0 2 0;
#X connect 2 0 3 0;
#X connect 4 0 6 0;
#X connect 4 0 14 0;
#X connect 4 0 13 0;
#X connect 4 0 12 0;
#X connect 4 0 11 0;
#X connect 4 0 10 0;
#X connect 4 0 9 0;
#X connect 4 0 8 0;
#X connect 4 0 7 0;
#X connect 6 0 0 0;
#X connect 6 0 5 0;
#X connect 7 0 5 0;
#X connect 8 0 5 0;
#X connect 9 0 5 0;
#X connect 10 0 5 0;
#X connect 11 0 5 0;
#X connect 12 0 5 0;
#X connect 13 0 5 0;
#X connect 14 0 5 0;
