#N canvas 214 62 652 760 16;
#X obj 82 62 adc~;
#X obj 52 464 out1~;
#X obj 316 134 delwrite~ pitch-shift-del 10000;
#X obj 138 317 delread4~ pitch-shift-del;
#X obj 102 206 phasor~;
#X obj 139 282 +~ 2;
#X obj 139 253 *~ 100;
#X obj 47 313 cos~;
#X obj 47 252 *~ 0.5;
#X obj 47 281 -~ 0.25;
#X obj 49 348 *~;
#X obj 463 316 delread4~ pitch-shift-del;
#X obj 464 281 +~ 2;
#X obj 464 252 *~ 100;
#X obj 372 312 cos~;
#X obj 372 251 *~ 0.5;
#X obj 372 280 -~ 0.25;
#X obj 374 347 *~;
#X obj 357 194 +~ 0.5;
#X obj 357 223 wrap~;
#X obj 49 377 +~;
#X obj 324 93 osc~ 440;
#X obj 416 39 out1~;
#X floatatom 375 418 5 0 0 0 - - -;
#X text 472 423 shift in 1/2-steps;
#X obj 362 518 mtof;
#X obj 422 521 mtof;
#X msg 423 482 69;
#X obj 364 480 + 69;
#X floatatom 362 547 5 0 0 0 - - -;
#X floatatom 422 550 5 0 0 0 - - -;
#X obj 363 578 /;
#X obj 375 450 t f b;
#X obj 361 610 - 1;
#X obj 361 639 / 0.1;
#X obj 361 668 * -1;
#X connect 3 0 10 1;
#X connect 4 0 6 0;
#X connect 4 0 8 0;
#X connect 4 0 18 0;
#X connect 5 0 3 0;
#X connect 6 0 5 0;
#X connect 7 0 10 0;
#X connect 8 0 9 0;
#X connect 9 0 7 0;
#X connect 10 0 20 0;
#X connect 11 0 17 1;
#X connect 12 0 11 0;
#X connect 13 0 12 0;
#X connect 14 0 17 0;
#X connect 15 0 16 0;
#X connect 16 0 14 0;
#X connect 17 0 20 1;
#X connect 18 0 19 0;
#X connect 19 0 15 0;
#X connect 19 0 13 0;
#X connect 20 0 1 0;
#X connect 21 0 2 0;
#X connect 21 0 22 0;
#X connect 23 0 32 0;
#X connect 25 0 29 0;
#X connect 26 0 30 0;
#X connect 27 0 26 0;
#X connect 28 0 25 0;
#X connect 29 0 31 0;
#X connect 30 0 31 1;
#X connect 31 0 33 0;
#X connect 32 0 28 0;
#X connect 32 1 27 0;
#X connect 33 0 34 0;
#X connect 34 0 35 0;
#X connect 35 0 4 0;
