#N canvas 95 76 820 679 16;
#X obj 67 352 out1~;
#X obj 61 218 f;
#X obj 106 187 + 1;
#X obj 106 216 mod 6;
#X obj 58 189 bng 15 250 50 0 empty empty empty 17 7 0 10 -262144 -1
-1;
#X floatatom 61 247 5 0 0 0 - - -;
#X obj 132 277 pack;
#X obj 115 157 t b f;
#X obj 65 311 clone 4.b.abstraction 20;
#X floatatom 123 104 5 0 0 0 - - -;
#X obj 385 99 metro 150;
#X obj 384 69 tgl 15 0 empty empty empty 17 7 0 10 -262144 -1 -1 0
1;
#N canvas 0 50 450 250 (subpatch) 0;
#X array probabilities 25 float 3;
#A 0 0 0 0 0.835714 0 0 0 0 0.835714 0 0 0 0.821429 0 0 0 0 0.828571
0 0.857143 0 0.871429 0 0.9 0.928571;
#X coords 0 1 25 0 200 140 1 0 0;
#X restore 568 98 graph;
#X obj 385 128 array random probabilities, f 13;
#X obj 382 190 + 60;
#X msg 548 300 \; probabilities const 0;
#X connect 1 0 2 0;
#X connect 1 0 5 0;
#X connect 2 0 3 0;
#X connect 3 0 1 1;
#X connect 4 0 1 0;
#X connect 5 0 6 0;
#X connect 6 0 8 0;
#X connect 7 0 4 0;
#X connect 7 1 6 1;
#X connect 8 0 0 0;
#X connect 9 0 7 0;
#X connect 10 0 13 0;
#X connect 11 0 10 0;
#X connect 13 0 14 0;
#X connect 14 0 9 0;
