#N canvas 20 96 674 527 16;
#X floatatom 100 50 5 0 0 0 - - -;
#X obj 392 23 inlet;
#X obj 85 17 mtof;
#X obj 431 493 outlet~;
#X obj 166 281 phasor~;
#X obj 161 357 +~ 1;
#X floatatom 480 204 5 0 0 0 - - -;
#X obj 441 442 *~;
#X obj 517 428 line~;
#X obj 517 457 *~;
#X msg 509 321 1 10;
#X obj 512 280 del 10;
#X obj 507 259 bng 15 250 50 0 empty empty empty 17 7 0 10 -262144
-1 -1;
#X obj 161 328 *~;
#X obj 215 331 r sampler-nsamps;
#X floatatom 19 184 5 0 0 0 - - -;
#X msg 389 287 0;
#X obj 559 195 /;
#X msg 531 160 1000;
#X floatatom 583 228 7 0 0 0 - - -;
#X obj 533 127 t b f;
#X obj 582 256 - 10;
#X msg 580 338 0 \$1;
#X obj 583 310 float;
#X obj 162 386 tabread4~ voice-recording;
#X obj 136 167 r sampler-nsamps;
#X obj 87 88 t b f;
#X obj 76 248 *;
#X msg 80 138 44100;
#X obj 80 167 / 1;
#X obj 80 196 / 440;
#X floatatom 14 293 5 0 0 0 - - -;
#X connect 1 0 2 0;
#X connect 1 0 16 0;
#X connect 2 0 0 0;
#X connect 2 0 26 0;
#X connect 4 0 13 0;
#X connect 5 0 24 0;
#X connect 6 0 10 0;
#X connect 6 0 12 0;
#X connect 7 0 3 0;
#X connect 8 0 9 0;
#X connect 8 0 9 1;
#X connect 9 0 7 1;
#X connect 10 0 8 0;
#X connect 11 0 23 0;
#X connect 12 0 11 0;
#X connect 13 0 5 0;
#X connect 14 0 13 1;
#X connect 16 0 4 1;
#X connect 17 0 19 0;
#X connect 17 0 21 0;
#X connect 18 0 17 0;
#X connect 20 0 18 0;
#X connect 20 1 17 1;
#X connect 21 0 23 1;
#X connect 22 0 8 0;
#X connect 23 0 22 0;
#X connect 24 0 7 0;
#X connect 25 0 29 1;
#X connect 26 0 12 0;
#X connect 26 0 10 0;
#X connect 26 0 28 0;
#X connect 26 1 27 1;
#X connect 27 0 4 0;
#X connect 27 0 31 0;
#X connect 27 0 20 0;
#X connect 28 0 29 0;
#X connect 29 0 30 0;
#X connect 30 0 27 0;
