#N canvas 255 75 643 547 16;
#N canvas 0 50 450 250 (subpatch) 0;
#X array voice-recording 206618 float 2;
#X coords 0 1 206618 -1 200 140 1;
#X restore 384 75 graph;
#X obj 202 186 adc~;
#X obj 202 215 tabwrite~ voice-recording;
#X obj 266 185 bng 15 250 50 0 empty empty empty 17 7 0 10 -262144
-1 -1;
#X obj 57 278 bng 15 250 50 0 empty empty empty 17 7 0 10 -262144 -1
-1;
#X obj 57 298 tabplay~ voice-recording;
#X obj 57 327 out1~;
#X obj 475 333 soundfiler;
#X msg 471 257 read -resize piano-440.wav voice-recording, f 16;
#X floatatom 510 378 7 0 0 0 - - -;
#X obj 448 435 s sampler-nsamps;
#X obj 456 406 - 3;
#X floatatom 122 47 5 0 0 0 - - -;
#X msg 76 42 69;
#X obj 79 173 out1~;
#X obj 83 129 clone 7.a.sampler-voice 32;
#X msg 122 75 next \$1;
#X connect 1 0 2 0;
#X connect 3 0 2 0;
#X connect 4 0 5 0;
#X connect 5 0 6 0;
#X connect 7 0 9 0;
#X connect 7 0 11 0;
#X connect 8 0 7 0;
#X connect 11 0 10 0;
#X connect 12 0 16 0;
#X connect 13 0 12 0;
#X connect 15 0 14 0;
#X connect 16 0 15 0;
