#N struct line-label float x float y float z symbol label;
#N canvas 152 131 1021 646 16;
#X obj 383 40 noise~;
#X floatatom 789 47 5 0 100 0 - - -;
#X obj 784 77 / 100;
#X obj 89 271 spectrum~;
#X obj 481 150 out1~;
#X floatatom 451 37 5 0 0 0 - - -;
#N canvas 2 91 568 282 block-1 1;
#X obj 48 229 delwrite~ delay3 1000;
#X obj 136 115 *~;
#X obj 38 36 inlet~;
#X obj 292 221 outlet~;
#X obj 123 19 inlet;
#X obj 121 50 delread~ delay3;
#X obj 274 44 block~ 1;
#X obj 304 88 inlet;
#X obj 47 177 +~;
#X obj 39 138 *~;
#X obj 311 183 -;
#X msg 304 152 1;
#X obj 302 120 t b f;
#X floatatom 379 117 5 0 0 0 - - -;
#X floatatom 393 220 7 0 0 0 - - -;
#X connect 1 0 8 1;
#X connect 2 0 9 0;
#X connect 4 0 5 0;
#X connect 5 0 1 0;
#X connect 7 0 1 1;
#X connect 7 0 12 0;
#X connect 7 0 13 0;
#X connect 8 0 0 0;
#X connect 8 0 3 0;
#X connect 9 0 8 0;
#X connect 10 0 9 1;
#X connect 10 0 14 0;
#X connect 11 0 10 0;
#X connect 12 0 11 0;
#X connect 12 1 10 1;
#X restore 405 80 pd block-1;
#X obj 227 75 out1~;
#X obj 375 138 -~;
#X obj 375 165 out1~;
#X text 383 248 high pass;
#X text 485 234 low pass;
#X connect 0 0 6 0;
#X connect 0 0 7 0;
#X connect 0 0 8 0;
#X connect 1 0 2 0;
#X connect 2 0 6 2;
#X connect 5 0 6 1;
#X connect 6 0 3 0;
#X connect 6 0 4 0;
#X connect 6 0 8 1;
#X connect 8 0 9 0;
