#N struct line-label float x float y float z symbol label;
#N canvas 84 96 1021 646 16;
#X obj 435 18 noise~;
#X obj 70 375 spectrum~;
#X obj 477 129 out1~;
#X obj 294 100 out1~;
#X obj 389 132 out1~;
#X text 482 213 high pass;
#X text 384 216 low pass;
#X obj 387 99 lop~;
#X obj 477 100 hip~;
#X floatatom 747 12 5 0 0 0 - - -;
#X obj 747 40 mtof;
#X floatatom 776 81 7 0 0 0 - - -;
#X obj 655 99 vcf~;
#X obj 652 144 out1~;
#X text 657 228 bandpass;
#X obj 746 149 out1~;
#X text 751 233 lowpass;
#X floatatom 776 109 5 0 0 0 - - -;
#X floatatom 711 100 5 0 1000 0 - - -;
#X connect 0 0 3 0;
#X connect 0 0 7 0;
#X connect 0 0 8 0;
#X connect 0 0 12 0;
#X connect 7 0 4 0;
#X connect 8 0 2 0;
#X connect 9 0 10 0;
#X connect 10 0 11 0;
#X connect 10 0 8 1;
#X connect 10 0 7 1;
#X connect 10 0 12 1;
#X connect 11 0 17 0;
#X connect 12 0 13 0;
#X connect 12 0 1 0;
#X connect 12 1 15 0;
#X connect 18 0 12 2;
