#N struct line-label float x float y float z symbol label;
#N canvas 7 5 985 785 16;
#X obj 41 434 spectrum~;
#X obj 25 233 vcf~;
#X obj 22 278 out1~;
#X text 19 363 bandpass;
#X obj 119 288 out1~;
#X text 140 368 lowpass;
#X floatatom 81 234 5 0 1000 0 - - -;
#N canvas 0 50 450 250 (subpatch) 0;
#X array pulse 103 float 3;
#A 0 0 0 0 0 0 0 0 0 0 0 0 0 0 0 0 0 0 0 0 0 0 0 0 0 0 0 0 0 0 0 0
0 0 0 0 0 0 0 0 0 0 0 0 0 0 0 0 0 0 0.333 0.666 1 0.666 0.333 0 0 0
0 0 0 0 0 0 0 0 0 0 0 0 0 0 0 0 0 0 0 0 0 0 0 0 0 0 0 0 0 0 0 0 0 0
0 0 0 0 0 0 0 0 0 0 0 0;
#X coords 0 1 103 -1 200 140 1;
#X restore 675 54 graph;
#X msg 601 203 \; pulse const 0 \, 49 0.333 0.666 1 0.666 0.333;
#X floatatom 351 40 5 0 0 0 - - -;
#X obj 351 68 mtof;
#X obj 351 98 phasor~;
#X obj 351 127 -~ 0.5;
#X obj 351 156 *~;
#X floatatom 402 155 5 0 0 0 - - -;
#X obj 351 185 +~ 51;
#X obj 347 214 tabread4~ pulse;
#X obj 41 719;
#X obj 363 283 scope~;
#X obj 283 307 out1~;
#X floatatom 162 158 5 0 0 0 - - -;
#X obj 161 192 mtof;
#X obj 106 191 *~;
#X obj 61 117 line~;
#X obj 61 146 *~;
#X msg 55 76 1 10;
#X obj 154 51 del 10;
#X obj 168 24 bng 15 250 50 0 empty empty empty 17 7 0 10 -262144 -1
-1;
#X msg 157 83 0 1000;
#X obj 458 35 tgl 15 0 empty empty empty 17 7 0 10 -262144 -1 -1 1
1;
#X obj 455 63 metro 150;
#X obj 455 92 random 100;
#X connect 1 0 2 0;
#X connect 1 1 4 0;
#X connect 1 1 0 0;
#X connect 1 1 18 0;
#X connect 6 0 1 2;
#X connect 9 0 10 0;
#X connect 9 0 27 0;
#X connect 10 0 11 0;
#X connect 11 0 12 0;
#X connect 12 0 13 0;
#X connect 13 0 15 0;
#X connect 14 0 13 1;
#X connect 15 0 16 0;
#X connect 16 0 19 0;
#X connect 16 0 1 0;
#X connect 20 0 21 0;
#X connect 21 0 22 1;
#X connect 22 0 1 1;
#X connect 23 0 24 0;
#X connect 23 0 24 1;
#X connect 24 0 22 0;
#X connect 25 0 23 0;
#X connect 26 0 28 0;
#X connect 27 0 26 0;
#X connect 27 0 25 0;
#X connect 28 0 23 0;
#X connect 29 0 30 0;
#X connect 30 0 31 0;
#X connect 31 0 9 0;
