#N canvas 121 99 985 785 16;
#X obj 59 143 vcf~;
#X obj 22 278 out1~;
#X text 19 363 bandpass;
#X obj 119 288 out1~;
#X text 140 368 lowpass;
#X floatatom 115 144 5 0 1000 0 - - -;
#N canvas 0 50 450 250 (subpatch) 0;
#X array pulse 103 float 3;
#A 0 0 0 0 0 0 0 0 0 0 0 0 0 0 0 0 0 0 0 0 0 0 0 0 0 0 0 0 0 0 0 0
0 0 0 0 0 0 0 0 0 0 0 0 0 0 0 0 0 0 0.333 0.666 1 0.666 0.333 0 0 0
0 0 0 0 0 0 0 0 0 0 0 0 0 0 0 0 0 0 0 0 0 0 0 0 0 0 0 0 0 0 0 0 0 0
0 0 0 0 0 0 0 0 0 0 0 0;
#X coords 0 1 103 -1 200 140 1;
#X restore 675 54 graph;
#X msg 601 203 \; pulse const 0 \, 49 0.333 0.666 1 0.666 0.333;
#X obj 41 719;
#X obj 63 457 scope~;
#X obj 283 307 out1~;
#X obj 251 38 tgl 15 0 empty empty empty 17 7 0 10 -262144 -1 -1 1
1;
#X obj 248 66 metro 1000;
#X obj 224 112 tabplay~ pulse;
#X floatatom 76 68 5 0 0 0 - - -;
#X obj 115 172 + 1;
#X obj 54 202 *~;
#X obj 97 203 *~;
#X obj 686 359 hilbert~;
#X obj 687 307 osc~ 440;
#X obj 66 608 scope~;
#X obj 649 435 bng 15 250 50 0 empty empty empty 17 7 0 10 -262144
-1 -1;
#X obj 716 533 *~;
#X obj 777 541 *~;
#X obj 716 562 +~;
#X obj 716 591 peek~;
#X obj 822 363 hilbert~;
#X obj 824 415 *~;
#X obj 862 415 *~;
#X obj 824 473 out1~;
#X obj 823 310 osc~;
#X floatatom 823 272 5 0 0 0 - - -;
#X obj 824 444 -~;
#X connect 0 0 16 0;
#X connect 0 1 17 0;
#X connect 5 0 0 2;
#X connect 5 0 15 0;
#X connect 11 0 12 0;
#X connect 12 0 13 0;
#X connect 13 0 10 0;
#X connect 13 0 0 0;
#X connect 14 0 0 1;
#X connect 15 0 17 1;
#X connect 15 0 16 1;
#X connect 16 0 1 0;
#X connect 17 0 3 0;
#X connect 18 0 9 0;
#X connect 18 0 22 0;
#X connect 18 0 22 1;
#X connect 18 0 27 0;
#X connect 18 1 20 0;
#X connect 18 1 23 0;
#X connect 18 1 23 1;
#X connect 18 1 28 0;
#X connect 19 0 18 0;
#X connect 21 0 9 1;
#X connect 21 0 20 1;
#X connect 22 0 24 0;
#X connect 23 0 24 1;
#X connect 24 0 25 0;
#X connect 26 0 27 1;
#X connect 26 1 28 1;
#X connect 27 0 32 0;
#X connect 28 0 32 1;
#X connect 30 0 26 0;
#X connect 31 0 30 0;
#X connect 32 0 29 0;
