#N canvas 148 149 759 540 16;
#X obj 246 54 text define -k poodle;
#A set 500 60 1000 \; 250 72 1000 \; 250 65 200 \;;
#X obj 398 220 text get poodle;
#X obj 398 249 print got;
#X floatatom 395 181 5 0 0 0 - - -;
#X floatatom 459 179 5 0 0 0 - - -;
#X floatatom 516 179 5 0 0 0 - - -;
#X floatatom 439 293 5 0 0 0 - - -;
#X floatatom 503 291 5 0 0 0 - - -;
#X floatatom 560 291 5 0 0 0 - - -;
#X obj 442 332 text set poodle;
#X obj 62 299 text set poodle;
#X msg 61 246 123 234 345 456;
#X obj 238 263 metro 1000;
#X obj 241 235 tgl 15 0 empty empty empty 17 7 0 10 -262144 -1 -1 0
1;
#X obj 238 292 f;
#X obj 238 351 mod 3;
#X obj 238 322 + 1;
#X obj 240 388 text get poodle;
#X obj 472 434 unpack 0 0 0;
#X obj 480 472 pack 0 0 0;
#X obj 398 429 t l b;
#X obj 476 504 print;
#X obj 52 451 text sequence poodle -w 1;
#X msg 53 377 line 0 \, auto;
#X obj 52 480 print print1;
#X msg 70 413 tempo 1 msec;
#X obj 315 487 bng 15 250 50 0 empty empty empty 17 7 0 10 -262144
-1 -1;
#X msg 237 419 stop;
#X obj 92 45 metro 1000;
#X obj 95 17 tgl 15 0 empty empty empty 17 7 0 10 -262144 -1 -1 0 1
;
#X obj 92 74 f;
#X obj 92 133 mod 3;
#X obj 92 104 + 1;
#X floatatom 92 162 5 0 0 0 - - -;
#X connect 1 0 2 0;
#X connect 3 0 1 0;
#X connect 4 0 1 1;
#X connect 5 0 1 2;
#X connect 6 0 9 0;
#X connect 7 0 9 1;
#X connect 8 0 9 2;
#X connect 11 0 10 0;
#X connect 12 0 14 0;
#X connect 13 0 12 0;
#X connect 14 0 16 0;
#X connect 15 0 14 1;
#X connect 15 0 17 0;
#X connect 16 0 15 0;
#X connect 17 0 20 0;
#X connect 18 0 12 1;
#X connect 18 1 19 1;
#X connect 18 2 19 2;
#X connect 19 0 21 0;
#X connect 20 0 18 0;
#X connect 20 1 19 0;
#X connect 22 0 24 0;
#X connect 22 2 26 0;
#X connect 22 2 23 0;
#X connect 23 0 22 0;
#X connect 25 0 22 0;
#X connect 27 0 22 0;
#X connect 28 0 30 0;
#X connect 29 0 28 0;
#X connect 30 0 32 0;
#X connect 31 0 30 1;
#X connect 31 0 33 0;
#X connect 32 0 31 0;
#X connect 33 0 1 0;
