#N canvas 158 151 731 569 16;
#X obj 150 68 inlet;
#X obj 20 241 mtof;
#X obj 20 270 osc~;
#X obj 20 299 +~ 0.15;
#X obj 20 328 cos~;
#X obj 20 357 *~;
#X obj 141 320 line~;
#X obj 140 349 *~;
#X obj 20 386 outlet~;
#X msg 130 275 1 10;
#X msg 197 281 0 1000;
#X text 237 70 pitch \, "velocity";
#X obj 161 143 route 0;
#X msg 150 97 \$2 \$1;
#X obj 198 183 unpack;
#X text 61 438 another version of voice that takes separate messages
for turning voices on and off;
#X connect 0 0 13 0;
#X connect 1 0 2 0;
#X connect 2 0 3 0;
#X connect 3 0 4 0;
#X connect 4 0 5 0;
#X connect 5 0 8 0;
#X connect 6 0 7 0;
#X connect 6 0 7 1;
#X connect 7 0 5 1;
#X connect 9 0 6 0;
#X connect 10 0 6 0;
#X connect 12 0 10 0;
#X connect 12 1 14 0;
#X connect 13 0 12 0;
#X connect 14 1 1 0;
#X connect 14 1 9 0;
