#N canvas 158 151 731 569 16;
#X obj 150 68 inlet;
#X text 237 70 pitch \, duration;
#X obj 150 154 unpack;
#X obj 339 228 del;
#X obj 147 223 mtof;
#X obj 147 252 osc~;
#X obj 147 281 +~ 0.15;
#X obj 147 310 cos~;
#X obj 147 339 *~;
#X obj 268 302 line~;
#X obj 267 331 *~;
#X obj 147 368 outlet~;
#X msg 257 257 1 10;
#X msg 324 263 0 1000;
#X connect 0 0 2 0;
#X connect 2 0 4 0;
#X connect 2 0 12 0;
#X connect 2 1 3 0;
#X connect 3 0 13 0;
#X connect 4 0 5 0;
#X connect 5 0 6 0;
#X connect 6 0 7 0;
#X connect 7 0 8 0;
#X connect 8 0 11 0;
#X connect 9 0 10 0;
#X connect 9 0 10 1;
#X connect 10 0 8 1;
#X connect 12 0 9 0;
#X connect 13 0 9 0;
