#N canvas 153 91 1004 673 16;
#X obj 181 135 adc~;
#X obj 180 177 env~;
#X floatatom 199 211 5 0 0 0 - - -;
#X obj 187 251 dbtorms;
#X floatatom 210 281 5 0 0 0 - - -;
#X obj 88 351 +~ 0.15;
#X obj 88 380 cos~;
#X obj 92 448 out1~;
#X obj 88 322 osc~ 110;
#X obj 190 342 line~;
#X obj 88 409 *~;
#X obj 86 149 t b b;
#X obj 86 178 timer;
#X floatatom 86 207 5 0 0 0 - - -;
#X msg 190 313 \$1 11.61;
#X obj 446 87 adc~;
#X obj 445 129 sigmund~;
#X floatatom 434 173 5 0 0 0 - - -;
#X floatatom 518 174 5 0 0 0 - - -;
#X obj 530 286 dbtorms;
#X floatatom 553 316 5 0 0 0 - - -;
#X obj 431 386 +~ 0.15;
#X obj 431 415 cos~;
#X obj 435 483 out1~;
#X obj 533 377 line~;
#X obj 431 444 *~;
#X obj 429 307 mtof;
#X obj 431 357 osc~;
#X obj 393 218 moses 1;
#X obj 383 250 + 0.5;
#X obj 383 279 int;
#X msg 534 348 \$1 11.61;
#X connect 0 0 1 0;
#X connect 1 0 2 0;
#X connect 1 0 3 0;
#X connect 1 0 11 0;
#X connect 3 0 4 0;
#X connect 3 0 14 0;
#X connect 5 0 6 0;
#X connect 6 0 10 0;
#X connect 8 0 5 0;
#X connect 9 0 10 1;
#X connect 10 0 7 0;
#X connect 11 0 12 0;
#X connect 11 1 12 1;
#X connect 12 0 13 0;
#X connect 14 0 9 0;
#X connect 15 0 16 0;
#X connect 16 0 17 0;
#X connect 16 1 18 0;
#X connect 17 0 28 0;
#X connect 18 0 19 0;
#X connect 19 0 20 0;
#X connect 19 0 31 0;
#X connect 21 0 22 0;
#X connect 22 0 25 0;
#X connect 24 0 25 1;
#X connect 25 0 23 0;
#X connect 26 0 27 0;
#X connect 27 0 21 0;
#X connect 28 1 29 0;
#X connect 29 0 30 0;
#X connect 30 0 26 0;
#X connect 31 0 24 0;
