#N struct line-label float x float y float z symbol label;
#N canvas 129 106 1431 794 12;
#X obj 52 181 mtof;
#X floatatom 32 219 5 0 0 0 - - -;
#X obj 49 245 osc~;
#X obj 78 38 receive start-dist-voice;
#X floatatom 90 149 5 0 0 0 - - -;
#X obj 89 82 f \$1;
#X text 140 66 If you try to just send a message with \$1 \, it will
send what's incoming from its inlet instead of the abstraction's \$1.
;
#X obj 58 333 cos~;
#X obj 55 299 +~ 0.1;
#X obj 21 146 f \$2;
#X obj 288 197 mtof;
#X floatatom 268 235 5 0 0 0 - - -;
#X obj 285 268 osc~;
#X obj 117 357 +~;
#X obj 459 475 spectrum~;
#X obj 641 21 receive mod-index;
#X floatatom 651 54 5 0 0 0 - - -;
#X obj 69 275 *~;
#X obj 663 190 line~;
#X text 195 127 \$1: Carrier freq \, \$2: modulation freq;
#X obj 658 217 snapshot~;
#X floatatom 658 241 5 0 0 0 - - -;
#X msg 627 157 \$1 1000;
#X floatatom 740 116 5 0 0 0 - - -;
#X obj 579 184 print;
#X obj 125 281 receive symmetry;
#X floatatom 125 305 5 0 0 0 - - -;
#X obj 246 641 *~;
#X floatatom 302 614 5 0 0 0 - - -;
#X obj 302 590 receive amplitude;
#X obj 274 682 throw~ sum;
#X obj 643 82 / 100;
#X obj 285 17 receive pitch-mod;
#X obj 285 41 f;
#X floatatom 334 44 5 0 0 0 - - -;
#X obj 126 106 expr \$1 + $f1 - 40;
#X obj 151 415 cos~;
#X connect 0 0 1 0;
#X connect 1 0 2 0;
#X connect 2 0 17 0;
#X connect 3 0 5 0;
#X connect 3 0 9 0;
#X connect 4 0 10 0;
#X connect 5 0 4 0;
#X connect 7 0 13 0;
#X connect 8 0 7 0;
#X connect 9 0 0 0;
#X connect 10 0 11 0;
#X connect 11 0 12 0;
#X connect 12 0 13 1;
#X connect 13 0 36 0;
#X connect 15 0 16 0;
#X connect 16 0 31 0;
#X connect 17 0 8 0;
#X connect 18 0 17 1;
#X connect 18 0 20 0;
#X connect 20 0 21 0;
#X connect 22 0 18 0;
#X connect 22 0 24 0;
#X connect 25 0 26 0;
#X connect 26 0 8 1;
#X connect 27 0 14 0;
#X connect 27 0 30 0;
#X connect 28 0 27 1;
#X connect 29 0 28 0;
#X connect 31 0 22 0;
#X connect 31 0 23 0;
#X connect 32 0 33 0;
#X connect 33 0 34 0;
#X connect 33 0 35 0;
#X connect 35 0 4 0;
#X connect 36 0 27 0;
