#N canvas 122 259 1158 641 10;
#X obj 100 100 cnv 15 200 60 empty \$0-background empty 20 7 0 14 -66576
-260097 0;
#X obj 100 100 cnv 15 100 60 empty \$0-canvas --------------------------
20 12 0 10 -66576 -260097 0;
#X obj 310 93 openpanel;
#X obj 317 278 outlet~;
#X obj 428 257 spigot;
#X obj 196 122 nbx 10 14 -1e+37 1e+37 0 0 empty empty empty 0 -8 0
10 -1 -4034 -4034 0 256;
#X obj 155 141 tgl 15 0 empty empty loop 17 7 0 10 -1 -4034 -4034 0
1;
#X obj 310 179 soundfiler;
#X obj 588 277 outlet;
#X obj 106 122 bng 15 250 50 0 empty empty open_file 17 7 0 10 -1 -4034
-4034;
#X obj 224 141 bng 15 250 50 0 empty empty normalize 17 7 0 10 -1 -4034
-4034;
#X obj 106 141 bng 15 250 50 0 empty empty play 17 7 0 10 -1 -4034
-4034;
#X obj 112 251 table \$0-sound-L;
#X obj 112 272 table \$0-sound-R;
#X obj 310 128 pack s s s;
#X obj 310 46 t b b b;
#X obj 376 93 symbol \$0-sound-L;
#X obj 491 93 symbol \$0-sound-R;
#X obj 477 278 outlet~;
#X obj 317 230 tabplay~ \$0-sound-L;
#X obj 477 230 tabplay~ \$0-sound-R;
#X obj 568 125 splitfilename /;
#X msg 654 215 \; \$1-canvas label \$2;
#X obj 654 172 f \$0;
#X obj 654 146 t b a;
#X obj 654 193 pack f s;
#X obj 799 21 loadbang;
#X obj 798 67 f \$0;
#X obj 862 22 bng 15 250 50 0 empty empty empty 17 7 0 10 -262144 -1
-1;
#N canvas 15 207 606 448 RGB_____________ 0;
#X obj 97 56 inlet;
#X obj 262 53 inlet;
#X obj 339 55 inlet;
#X obj 405 56 inlet;
#X obj 97 200 bang;
#X msg 77 225 0;
#X msg 104 225 1;
#X obj 146 198 bang;
#X msg 132 225 0;
#X msg 160 225 1;
#X obj 265 313 spigot;
#X obj 312 313 spigot;
#X obj 249 385 outlet;
#X text 93 33 select;
#X text 267 28 red;
#X text 337 30 green;
#X text 409 30 blue;
#X obj 405 102 t b f;
#X obj 339 160 +;
#X obj 339 185 t b f;
#X obj 339 216 +;
#X obj 296 385 outlet;
#X obj 28 180 loadbang;
#X obj 296 361 f;
#X obj 249 361 f;
#X obj 262 79 * -65536;
#X obj 339 80 * -256;
#X obj 405 80 * -1;
#X obj 339 247 - 1;
#X obj 97 135 route back label bang;
#X obj 235 168 t b b b;
#X connect 0 0 29 0;
#X connect 1 0 25 0;
#X connect 2 0 26 0;
#X connect 3 0 27 0;
#X connect 4 0 5 0;
#X connect 4 0 6 0;
#X connect 5 0 11 1;
#X connect 6 0 10 1;
#X connect 7 0 8 0;
#X connect 7 0 9 0;
#X connect 8 0 10 1;
#X connect 9 0 11 1;
#X connect 10 0 24 1;
#X connect 11 0 23 1;
#X connect 17 0 18 0;
#X connect 17 1 18 1;
#X connect 18 0 19 0;
#X connect 19 0 20 0;
#X connect 19 1 20 1;
#X connect 20 0 28 0;
#X connect 22 0 6 0;
#X connect 23 0 21 0;
#X connect 24 0 12 0;
#X connect 25 0 20 0;
#X connect 26 0 18 0;
#X connect 27 0 17 0;
#X connect 28 0 11 0;
#X connect 28 0 10 0;
#X connect 29 0 4 0;
#X connect 29 1 7 0;
#X connect 29 2 30 0;
#X connect 30 0 24 0;
#X connect 30 1 23 0;
#X connect 30 2 28 0;
#X restore 866 93 pd RGB_____________;
#X msg 904 64 255;
#X msg 934 64 128;
#X msg 965 64 0;
#X obj 799 43 t b b b b b;
#X msg 864 64 bang;
#X obj 799 92 t f f;
#X msg 807 140 \; \$1-canvas color \$2 \$3 \; \$1-background color
\$2 \$3 \;;
#X obj 804 118 pack f -4.21075e+06 f;
#X msg 799 188 \; \$1-canvas label -------------------------- \; \$1-canvas
label_font 0 10 \;;
#X obj 428 206 s \$0-sound-L;
#X obj 510 206 s \$0-sound-R;
#X msg 428 178 normalize 1;
#X msg 310 156 read -resize \$1 \$2 \$3;
#X connect 2 0 14 0;
#X connect 2 0 21 0;
#X connect 4 0 11 0;
#X connect 5 0 8 0;
#X connect 6 0 4 1;
#X connect 7 0 5 0;
#X connect 9 0 15 0;
#X connect 10 0 41 0;
#X connect 11 0 19 0;
#X connect 11 0 20 0;
#X connect 14 0 42 0;
#X connect 15 0 2 0;
#X connect 15 1 16 0;
#X connect 15 2 17 0;
#X connect 16 0 14 1;
#X connect 17 0 14 2;
#X connect 19 0 3 0;
#X connect 19 1 4 0;
#X connect 20 0 18 0;
#X connect 21 1 24 0;
#X connect 23 0 25 0;
#X connect 24 0 23 0;
#X connect 24 1 25 1;
#X connect 25 0 22 0;
#X connect 26 0 33 0;
#X connect 27 0 35 0;
#X connect 28 0 33 0;
#X connect 29 0 37 2;
#X connect 30 0 29 1;
#X connect 31 0 29 2;
#X connect 32 0 29 3;
#X connect 33 0 27 0;
#X connect 33 1 34 0;
#X connect 33 2 30 0;
#X connect 33 3 31 0;
#X connect 33 4 32 0;
#X connect 34 0 29 0;
#X connect 35 0 38 0;
#X connect 35 1 37 0;
#X connect 37 0 36 0;
#X connect 41 0 39 0;
#X connect 41 0 40 0;
#X connect 42 0 7 0;
#X coords 0 -1 1 1 204 64 1 98 98;
