#N canvas 0 50 451 421 16;
#X obj 91 192 f;
#X obj 138 195 + 1;
#X msg 143 152 1;
#X obj 68 155 until;
#X obj 216 230 t b;
#X obj 96 67 inlet;
#X obj 87 120 t b b f;
#X obj 205 127 + 1;
#X obj 88 232 moses;
#X obj 83 281 outlet;
#X connect 0 0 1 0;
#X connect 0 0 8 0;
#X connect 1 0 0 1;
#X connect 2 0 0 1;
#X connect 3 0 0 0;
#X connect 4 0 3 1;
#X connect 5 0 6 0;
#X connect 6 0 3 0;
#X connect 6 1 2 0;
#X connect 6 2 7 0;
#X connect 7 0 8 1;
#X connect 8 0 9 0;
#X connect 8 1 4 0;
