#N canvas 598 162 992 647 12;
#X obj 99 166 print;
#X obj 67 36 bng 15 250 50 0 empty empty empty 17 7 0 10 -262144 -1
-1;
#X obj 59 67 t b b;
#X obj 49 200 text-ticker hw8-part-a.txt 8 300;
#X obj 89 110 text-ticker hw8-part-b.txt 8 300;
#X floatatom 51 242 5 0 0 0 - - -;
#X connect 1 0 2 0;
#X connect 2 0 3 0;
#X connect 2 1 4 0;
#X connect 3 0 5 0;
#X connect 4 0 0 0;
