#N canvas 764 211 663 647 12;
#X obj 67 36 bng 15 250 50 0 empty empty empty 17 7 0 10 -262144 -1
-1;
#X obj 59 67 t b b;
#X obj 49 200 text-ticker hw8-part-a.txt 8 300;
#X floatatom 51 242 5 0 0 0 - - -;
#X floatatom 89 149 5 0 0 0 - - -;
#X obj 310 266 mtof;
#X obj 93 320 mtof;
#X floatatom 93 344 5 0 0 0 - - -;
#X floatatom 310 290 5 0 0 0 - - -;
#X obj 44 277 moses 1;
#X obj 132 412 phasor~;
#X obj 153 492 out1~;
#X obj 380 343 until;
#X obj 89 110 text-ticker hw8-part-b.txt 8 300 0;
#X connect 0 0 1 0;
#X connect 1 0 2 0;
#X connect 1 1 13 0;
#X connect 2 0 3 0;
#X connect 3 0 9 0;
#X connect 5 0 8 0;
#X connect 6 0 7 0;
#X connect 7 0 10 0;
#X connect 9 1 6 0;
#X connect 10 0 11 0;
#X connect 13 0 4 0;
