#N canvas 0 106 656 494 12;
#X obj 142 113 bng 15 250 50 0 empty empty empty 17 7 0 10 -262144
-1 -1;
#X floatatom 149 137 5 0 0 0 - - -;
#X floatatom 144 327 5 0 0 0 - - -;
#X msg 255 294 set \$1;
#X obj 71 198 bng 15 250 50 0 empty empty empty 17 7 0 10 -262144 -1
-1;
#X obj 96 42 inlet;
#X obj 155 376 outlet;
#X text 197 26 Index ticker \$1: Count limit (start over at 0 before
hitting this) \$2: Count bpm;
#X obj 269 199 expr ($i1 + 1) % \$1;
#X obj 50 256 delay 1 \$2 permin;
#X connect 0 0 1 0;
#X connect 1 0 8 0;
#X connect 2 0 8 0;
#X connect 2 0 6 0;
#X connect 3 0 2 0;
#X connect 4 0 9 0;
#X connect 5 0 0 0;
#X connect 8 0 3 0;
#X connect 8 0 4 0;
#X connect 9 0 2 0;
