#N canvas 83 387 656 494 12;
#X obj 160 76 bng 15 250 50 0 empty empty empty 17 7 0 10 -262144 -1
-1;
#X floatatom 149 137 5 0 0 0 - - -;
#X floatatom 29 316 5 0 0 0 - - -;
#X msg 275 430 set \$1;
#X obj 170 326 bng 15 250 50 0 empty empty empty 17 7 0 10 -262144
-1 -1;
#X obj 96 42 inlet;
#X obj 27 419 outlet;
#X obj 167 351 delay 1 \$2 permin;
#X floatatom 418 98 5 0 0 0 - - -;
#X obj 402 74 f \$3;
#X obj 313 327 expr $i1 % \$1;
#X obj 155 182 expr $i1 + 1;
#X floatatom 329 134 5 0 0 0 - - -;
#X obj 326 106 f \$1;
#X text 197 26 Index ticker \$1: Count limit (start over at 0 before
hitting this) \$2: Count bpm \$3: Stop after one run (0 or 1);
#X floatatom 362 250 5 0 0 0 - - -;
#X obj 305 200 moses 0;
#X obj 362 224 f 0;
#X floatatom 257 248 5 0 0 0 - - -;
#X obj 385 279 moses;
#X obj 409 159 *;
#X obj 417 204 + 1;
#X connect 0 0 1 0;
#X connect 0 0 9 0;
#X connect 0 0 13 0;
#X connect 1 0 11 0;
#X connect 2 0 6 0;
#X connect 2 0 11 0;
#X connect 3 0 2 0;
#X connect 4 0 7 0;
#X connect 5 0 0 0;
#X connect 7 0 2 0;
#X connect 8 0 20 1;
#X connect 9 0 8 0;
#X connect 10 0 4 0;
#X connect 10 0 3 0;
#X connect 11 0 16 0;
#X connect 12 0 16 1;
#X connect 12 0 20 0;
#X connect 13 0 12 0;
#X connect 15 0 19 0;
#X connect 16 0 18 0;
#X connect 16 0 10 0;
#X connect 16 1 17 0;
#X connect 17 0 15 0;
#X connect 19 1 10 0;
#X connect 20 0 21 0;
#X connect 21 0 19 1;
