#N canvas 371 339 996 680 16;
#X floatatom 30 56 7 0 100 0 - #0-val-set #0-val;
#X obj 48 225 bng 15 250 50 0 \$0-mute \$0-mute-set empty -38 7 0 12
-262144 -1 -1;
#X obj 48 255 hsl 20 12 1 9 0 0 \$0-pan \$0-pan-set empty -2 -8 0 10
-262144 -1 -1 0 1;
#X obj 75 255 bng 12 250 50 0 \$0-ctr-pan \$0-ctr-pan-set empty -38
7 0 12 -262144 -1 -1;
#X obj 110 184 vu 10 80 \$0-vu empty -1 -8 0 10 -66577 -1 0 0;
#X text 65 220 mute;
#X text 49 234 pan;
#X text 203 230 lvl;
#X obj 156 48 inlet~;
#X obj 157 117 snapshot~;
#X obj 255 18 loadbang;
#X obj 157 146 s \$0-val-set;
#X obj 253 53 metro 500;
#X obj 390 38 random 100;
#X obj 390 96 + 450.12;
#X connect 8 0 9 0;
#X connect 9 0 11 0;
#X connect 10 0 12 0;
#X connect 12 0 9 0;
#X connect 12 0 13 0;
#X connect 13 0 14 0;
#X connect 14 0 12 1;
#X coords 0 0 1 1 74 52 1 30 30;
