#N canvas 86 31 660 346 12;
#X obj 104 146 r \$1;
#X msg 104 170 set \$1;
#X obj 104 194 s \$1-set;
#X text 67 40 wonderful but confusing abstraction to manage a number
box controlled parameter;
#X obj 289 172 r \$1;
#X obj 253 177 f;
#X obj 254 140 r make-preset;
#X obj 248 256 symbol \$1;
#X obj 253 202 t b;
#X obj 248 281 print;
#X connect 0 0 1 0;
#X connect 1 0 2 0;
#X connect 4 0 5 1;
#X connect 5 0 8 0;
#X connect 6 0 5 0;
#X connect 7 0 9 0;
#X connect 8 0 7 0;
