#N canvas 13 55 1163 659 16;
#X obj 904 133 inlet~;
#N canvas 2 52 450 250 (subpatch) 0;
#X array \$0a 441 float 2;
#X coords 0 1 441 -1 500 100 2 0 0;
#X restore 102 137 graph;
#X obj 911 319 tabwrite~ \$0a;
#X obj 608 138 vradio 20 1 0 4 empty empty empty 0 -8 0 10 -262144
-1 -1 2;
#X text 629 155 0.1;
#X text 630 176 0.01;
#X text 630 197 0.001;
#X text 630 134 1 sec;
#X obj 605 376 samplerate~;
#X obj 596 346 t f b;
#X obj 724 376 samplerate~;
#X obj 727 346 t b f;
#X obj 594 486 s \$0a;
#X msg 595 453 resize \$1;
#X obj 596 408 *;
#X obj 728 408 /;
#X obj 738 15 loadbang;
#X msg 738 44 2;
#X obj 904 235 clip~ -1.2 1.2;
#X obj 795 155 bang~;
#X obj 795 184 timer;
#X obj 779 258 b;
#X obj 363 109 bng 20 50 50 0 empty empty empty 23 10 0 16 -262144
-1 -1;
#X obj 187 107 tgl 20 0 empty empty empty 24 10 0 16 -262144 -1 -1
0 1;
#X msg 235 40 0;
#X obj 365 44 t b b;
#N canvas 0 50 450 300 delw 0;
#X obj 118 75 delwrite~ \$0-del 10;
#X obj 105 38 inlet~;
#X obj 96 155 outlet~;
#X connect 1 0 0 0;
#X connect 1 0 2 0;
#X restore 902 171 pd delw;
#N canvas 0 50 450 300 delr 0;
#X obj 37 37 inlet~;
#X obj 166 69 inlet;
#X obj 65 155 outlet~;
#X obj 65 126 delread~ \$0-del;
#X connect 1 0 3 0;
#X connect 3 0 2 0;
#X restore 902 200 pd delr;
#X obj 795 213 expr 2-$f1;
#X text 618 108 length:;
#X text 207 103 on/off;
#X text 385 106 once;
#X obj 98 369 metro 1000;
#X msg 598 311 0.99;
#X floatatom 522 320 5 0 0 0 - - -;
#X msg 640 311 0.1;
#X obj 599 271 sel 0 1 2 3;
#X msg 682 311 100;
#X msg 725 310 1000;
#X msg 381 319 1000;
#X msg 416 352 200;
#X obj 203 257 f;
#X obj 202 288 sel 1;
#X msg 206 315 1;
#X obj 276 266 b;
#X obj 957 56 inlet;
#X connect 0 0 26 0;
#X connect 3 0 34 0;
#X connect 3 0 36 0;
#X connect 3 0 44 0;
#X connect 8 0 14 1;
#X connect 9 0 14 0;
#X connect 9 1 8 0;
#X connect 10 0 15 0;
#X connect 11 0 10 0;
#X connect 11 1 15 1;
#X connect 13 0 12 0;
#X connect 14 0 13 0;
#X connect 15 0 13 0;
#X connect 16 0 17 0;
#X connect 17 0 3 0;
#X connect 18 0 2 0;
#X connect 19 0 20 0;
#X connect 20 0 28 0;
#X connect 21 0 20 1;
#X connect 21 0 2 0;
#X connect 22 0 25 0;
#X connect 23 0 32 0;
#X connect 23 0 41 1;
#X connect 24 0 23 0;
#X connect 25 0 21 0;
#X connect 25 1 24 0;
#X connect 26 0 27 0;
#X connect 27 0 18 0;
#X connect 28 0 27 1;
#X connect 32 0 21 0;
#X connect 33 0 9 0;
#X connect 35 0 9 0;
#X connect 36 0 33 0;
#X connect 36 0 39 0;
#X connect 36 1 35 0;
#X connect 36 1 40 0;
#X connect 36 2 37 0;
#X connect 36 2 40 0;
#X connect 36 3 38 0;
#X connect 36 3 40 0;
#X connect 37 0 11 0;
#X connect 38 0 11 0;
#X connect 39 0 32 1;
#X connect 40 0 32 1;
#X connect 41 0 42 0;
#X connect 42 0 43 0;
#X connect 43 0 32 0;
#X connect 44 0 41 0;
#X connect 45 0 22 0;
#X coords 0 -1 1 1 594 140 1 100 100;
