#N struct line-label float x float y float z symbol label;
#N canvas 144 232 1217 629 12;
#X obj 630 51 mtof;
#X obj 607 242 throw~ sum;
#X obj 631 163 osc~;
#X floatatom 679 74 5 0 0 0 - - -;
#X obj 707 222 snapshot~;
#X floatatom 712 250 5 0 0 0 - - -;
#X obj 613 196 *~;
#X obj 785 58 bng 15 250 50 0 empty empty empty 17 7 0 10 -262144 -1
-1;
#X obj 327 320 spectrum~;
#X floatatom 84 344 5 0 0 0 - - -;
#X obj 92 303 snapshot~;
#X obj 85 254 line~;
#X obj 49 282 bng 15 250 50 0 empty empty empty 17 7 0 10 -262144 -1
-1;
#X obj 121 21 bng 15 250 50 0 empty empty empty 17 7 0 10 -262144 -1
-1;
#X floatatom 127 163 5 0 0 0 - - -;
#X msg 110 190 \$1 250;
#X text 198 135 Store the argument to the abstraction.;
#X text 112 212 You can't use the abstraction arg directly in a message.
;
#X obj 142 135 f \$2, f 5;
#X obj 142 105 delay \$1 \$3 permin;
#X floatatom 90 109 5 0 0 0 - - -;
#X obj 284 41 f \$1;
#X obj 155 76 / 10;
#X msg 13 94 0 0.1;
#X text 808 243 Arguments: \$1 Clone number (determines delay and pitch
shift) \$2 Amplitude \$3 Tempo;
#X obj 630 86 *~;
#X obj 629 11 inlet;
#X obj 436 73 * 2;
#X connect 0 0 25 1;
#X connect 0 0 3 0;
#X connect 2 0 4 0;
#X connect 2 0 6 1;
#X connect 4 0 5 0;
#X connect 6 0 1 0;
#X connect 6 0 8 0;
#X connect 7 0 4 0;
#X connect 10 0 9 0;
#X connect 11 0 10 0;
#X connect 11 0 6 0;
#X connect 12 0 10 0;
#X connect 13 0 23 0;
#X connect 13 0 21 0;
#X connect 14 0 15 0;
#X connect 15 0 11 0;
#X connect 18 0 14 0;
#X connect 19 0 18 0;
#X connect 21 0 22 0;
#X connect 21 0 27 0;
#X connect 22 0 19 0;
#X connect 22 0 20 0;
#X connect 23 0 11 0;
#X connect 25 0 2 0;
#X connect 26 0 0 0;
#X connect 26 0 7 0;
#X connect 26 0 13 0;
#X connect 27 0 25 0;
