#N canvas 355 180 1067 644 12;
#N canvas 243 167 1272 663 fft-analysis 1;
#X obj 94 511 *~;
#X obj 55 511 *~;
#X obj 413 356 *~;
#X obj 372 356 *~;
#X obj 372 379 +~;
#X obj 23 169 *~;
#X obj 68 126 inlet~;
#X obj 54 206 rfft~;
#X obj 42 558 *~;
#X obj 141 245 *~;
#X obj 371 311 rfft~;
#X obj 54 535 rifft~;
#X obj 43 608 outlet~;
#X obj 107 245 *~;
#X obj 107 268 +~;
#X text 458 408 modulus;
#X obj 107 420 *~;
#X obj 111 150 tabreceive~ \$0-hann;
#X obj 599 53 loadbang;
#X obj 87 560 tabreceive~ \$0-hann;
#X obj 372 285 *~;
#X obj 372 260 inlet~;
#X obj 405 286 tabreceive~ \$0-hann;
#X obj 107 321 q8_rsqrt~;
#X obj 372 402 q8_sqrt~;
#X text 458 425 of control;
#X text 456 442 amplitude;
#X text 196 248 reciprocal;
#X text 199 267 modulus of;
#X text 195 287 filter input;
#X text 196 306 amplitude;
#X text 140 129 filter input;
#X text 437 260 control source;
#X text 433 310 Fourier transform;
#X text 28 17 Internal workings of the timbre stamping algorithm. First
the "filter input" is treated as in the compressor patch \, multiplying
each channel amplitude by one over its modulus (but limited by the
"squelch" parameter.) It is then multiplied by the modulus of the channel
amplitude for the control source (which is Fourier analyzed in parallel
with the filter input.);
#X text 145 422 multiply the two amplitude;
#X text 143 439 factors (for compression;
#X text 145 455 and to apply new timbre);
#X obj 108 480 *~ 0.00065;
#X msg 764 42 \; pd dsp 1 \; window-size 1024 \; squelch 30 \; squelch-set
set 30;
#X obj 285 588 outlet~;
#X text 102 611 Final result outlet (left);
#X text 369 587 Diagnostic outlet (right). Connect subobjects here
if you like.;
#X obj 575 370 tabwrite~ watcharray;
#X obj 584 233 bng 15 250 50 0 empty empty empty 17 7 0 10 -262144
-1 -1;
#N canvas 0 50 450 250 (subpatch) 0;
#X array watcharray 220500 float 2;
#X coords 0 50 220500 -50 1000 140 1 0 0;
#X restore 559 428 graph;
#X obj 600 13 block~ 1024 0;
#X text 706 14 Change overlap from 0 to 4 here to make it work.;
#X obj 107 294 +~ 1e-20;
#X floatatom 794 279 5 0 0 0 - - -;
#X obj 722 151 bang~;
#X obj 820 148 value blockcount;
#X obj 734 217 send blockcount;
#X obj 737 181 expr (blockcount + 1);
#X obj 788 250 receive blockcount;
#X obj 367 137 inlet;
#X text 427 134 Reset blockcount;
#X obj 371 190 send blockcount;
#X floatatom 362 162 5 0 0 0 - - -;
#X floatatom 793 332 5 0 0 0 - - -;
#X obj 740 281 bng 15 250 50 0 empty empty empty 17 7 0 10 -262144
-1 -1;
#X floatatom 830 389 5 0 0 0 - - -;
#X obj 794 357 select 0;
#X obj 796 306 mod 1000;
#X obj 606 327 tabdump watcharray;
#X obj 986 39 bng 15 250 50 0 empty empty empty 17 7 0 10 -262144 -1
-1;
#X obj 602 296 t b b;
#X connect 0 0 11 1;
#X connect 1 0 11 0;
#X connect 2 0 4 1;
#X connect 3 0 4 0;
#X connect 4 0 24 0;
#X connect 5 0 7 0;
#X connect 6 0 5 0;
#X connect 7 0 13 0;
#X connect 7 0 13 1;
#X connect 7 0 1 0;
#X connect 7 1 9 0;
#X connect 7 1 9 1;
#X connect 7 1 0 0;
#X connect 8 0 12 0;
#X connect 9 0 14 1;
#X connect 10 0 3 0;
#X connect 10 0 3 1;
#X connect 10 1 2 0;
#X connect 10 1 2 1;
#X connect 10 1 43 0;
#X connect 11 0 8 0;
#X connect 13 0 14 0;
#X connect 14 0 48 0;
#X connect 16 0 38 0;
#X connect 17 0 5 1;
#X connect 18 0 39 0;
#X connect 19 0 8 1;
#X connect 20 0 10 0;
#X connect 21 0 20 0;
#X connect 22 0 20 1;
#X connect 23 0 16 0;
#X connect 24 0 16 1;
#X connect 38 0 0 1;
#X connect 38 0 1 1;
#X connect 44 0 66 0;
#X connect 48 0 23 0;
#X connect 49 0 63 0;
#X connect 50 0 53 0;
#X connect 53 0 52 0;
#X connect 54 0 49 0;
#X connect 55 0 58 0;
#X connect 58 0 57 0;
#X connect 59 0 62 0;
#X connect 60 0 66 0;
#X connect 62 0 60 0;
#X connect 62 1 61 0;
#X connect 63 0 59 0;
#X connect 66 0 43 0;
#X connect 66 1 64 0;
#X restore 86 444 pd fft-analysis;
#X text 137 12 CORT&ZACK's SECRET;
#X text 27 422 filter;
#X text 29 437 input;
#X text 232 441 source;
#X text 233 422 control;
#X floatatom 53 300 0 0 500 0 - squelch-set -;
#X obj 53 324 s squelch;
#X obj 82 488 output~;
#X msg 157 278 ../sound/bell.aiff;
#X msg 157 328 ../sound/voice2.wav;
#X obj 157 354 s read-sound1;
#X msg 373 280 ../sound/bell.aiff;
#X msg 373 305 ../sound/voice.wav;
#X obj 373 355 s read-sound2;
#X text 386 256 control source;
#X text 169 255 filter input;
#X text 255 231 change input sounds;
#X floatatom 454 409 5 0 0 0 - #0-samp-msec -;
#X obj 87 394 bng 15 250 50 0 empty empty empty 0 -6 0 8 -262144 -1
-1;
#X obj 215 395 bng 15 250 50 0 empty empty empty 0 -6 0 8 -262144 -1
-1;
#N canvas 100 487 661 593 test-signals 0;
#X obj 90 444 line~;
#X obj 90 369 f;
#X obj 90 524 outlet~;
#X msg 90 423 0 \, \$1 \$2;
#X obj 90 397 pack 0 0;
#X obj 190 344 /;
#X obj 249 325 * 0.001;
#X obj 90 497 hip~ 5;
#X obj 35 246 loadbang;
#X msg 90 322 1;
#X obj 90 344 metro 1000;
#X obj 191 302 t b b f;
#X obj 117 270 t b f;
#X obj 90 469 tabread4~ \$0-sample;
#X text 21 28 test signal: looped sample playback;
#X obj 51 159 hip~ 5;
#X obj 51 135 adc~ 1;
#X obj 113 159 s insamprate;
#X obj 40 99 inlet;
#X obj 113 135 samplerate~;
#X obj 116 246 r \$0-samplength;
#X obj 191 276 r \$0-insamprate;
#X obj 40 182 tabwrite~ \$0-sample;
#X obj 398 437 line~;
#X obj 398 362 f;
#X obj 398 517 outlet~;
#X msg 398 416 0 \, \$1 \$2;
#X obj 398 390 pack 0 0;
#X obj 498 337 /;
#X obj 557 318 * 0.001;
#X obj 398 490 hip~ 5;
#X obj 343 239 loadbang;
#X msg 398 315 1;
#X obj 398 337 metro 1000;
#X obj 499 295 t b b f;
#X obj 425 263 t b f;
#X obj 360 152 hip~ 5;
#X obj 360 128 adc~ 1;
#X obj 348 91 inlet;
#X obj 422 128 samplerate~;
#X obj 422 152 s insamprate2;
#X obj 348 175 tabwrite~ \$0-sample2;
#X obj 424 239 r \$0-samplength2;
#X obj 499 269 r \$0-insamprate2;
#X obj 398 462 tabread4~ \$0-sample2;
#X connect 0 0 13 0;
#X connect 1 0 4 0;
#X connect 3 0 0 0;
#X connect 4 0 3 0;
#X connect 5 0 4 1;
#X connect 5 0 10 1;
#X connect 6 0 5 1;
#X connect 7 0 2 0;
#X connect 8 0 9 0;
#X connect 9 0 10 0;
#X connect 10 0 1 0;
#X connect 11 0 9 0;
#X connect 11 1 5 0;
#X connect 11 2 6 0;
#X connect 12 0 9 0;
#X connect 12 1 5 0;
#X connect 12 1 1 1;
#X connect 13 0 7 0;
#X connect 15 0 22 0;
#X connect 16 0 15 0;
#X connect 18 0 19 0;
#X connect 18 0 22 0;
#X connect 19 0 17 0;
#X connect 20 0 12 0;
#X connect 21 0 11 0;
#X connect 23 0 44 0;
#X connect 24 0 27 0;
#X connect 26 0 23 0;
#X connect 27 0 26 0;
#X connect 28 0 27 1;
#X connect 28 0 33 1;
#X connect 29 0 28 1;
#X connect 30 0 25 0;
#X connect 31 0 32 0;
#X connect 32 0 33 0;
#X connect 33 0 24 0;
#X connect 34 0 32 0;
#X connect 34 1 28 0;
#X connect 34 2 29 0;
#X connect 35 0 32 0;
#X connect 35 1 28 0;
#X connect 35 1 24 1;
#X connect 36 0 41 0;
#X connect 37 0 36 0;
#X connect 38 0 39 0;
#X connect 38 0 41 0;
#X connect 39 0 40 0;
#X connect 42 0 35 0;
#X connect 43 0 34 0;
#X connect 44 0 30 0;
#X restore 87 415 pd test-signals;
#X text 104 393 <- record ->;
#N canvas 336 106 722 350 insample2 0;
#N canvas 0 50 450 300 (subpatch) 0;
#X array \$0-sample2 220718 float 0;
#X coords 0 1 220717 -1 400 150 1;
#X restore 298 24 graph;
#X obj 19 74 unpack s f;
#X obj 19 184 soundfiler;
#X text 356 250 read a sample;
#X obj 276 249 loadbang;
#X obj 19 100 t s b;
#X obj 19 135 pack s s;
#X msg 19 160 read -resize \$1 \$2;
#X obj 74 46 44100;
#X obj 19 47 t a b;
#X obj 19 247 /;
#X obj 19 271 * 1000;
#X obj 19 23 r read-sound2;
#X obj 116 74 s \$0-insamprate2;
#X obj 75 99 symbol \$0-sample2;
#X obj 29 208 s \$0-samplength2;
#X obj 57 247 r \$0-insamprate2;
#X obj 19 294 s \$0-samp2-msec;
#X msg 276 273 \; read-sound2 ../sound/voice.wav;
#X connect 1 0 5 0;
#X connect 1 1 13 0;
#X connect 2 0 10 0;
#X connect 2 0 15 0;
#X connect 4 0 18 0;
#X connect 5 0 6 0;
#X connect 5 1 14 0;
#X connect 6 0 7 0;
#X connect 7 0 2 0;
#X connect 8 0 13 0;
#X connect 9 0 1 0;
#X connect 9 1 8 0;
#X connect 10 0 11 0;
#X connect 11 0 17 0;
#X connect 12 0 9 0;
#X connect 14 0 6 1;
#X connect 16 0 10 1;
#X restore 334 430 pd insample2;
#N canvas 89 216 722 350 insample1 0;
#N canvas 0 50 450 300 (subpatch) 0;
#X array \$0-sample 223316 float 0;
#X coords 0 1 223315 -1 400 150 1;
#X restore 259 24 graph;
#X obj 19 74 unpack s f;
#X obj 19 184 soundfiler;
#X text 356 250 read a sample;
#X obj 276 249 loadbang;
#X obj 19 100 t s b;
#X obj 75 99 symbol \$0-sample;
#X obj 19 135 pack s s;
#X msg 19 160 read -resize \$1 \$2;
#X obj 74 46 44100;
#X obj 19 47 t a b;
#X obj 29 208 s \$0-samplength;
#X obj 116 74 s \$0-insamprate;
#X obj 19 247 /;
#X obj 19 271 * 1000;
#X obj 19 294 s \$0-samp-msec;
#X obj 57 247 r \$0-insamprate;
#X obj 19 23 r read-sound1;
#X msg 276 273 \; read-sound1 ../sound/bell.aiff;
#X connect 1 0 5 0;
#X connect 1 1 12 0;
#X connect 2 0 11 0;
#X connect 2 0 13 0;
#X connect 4 0 18 0;
#X connect 5 0 7 0;
#X connect 5 1 6 0;
#X connect 6 0 7 1;
#X connect 7 0 8 0;
#X connect 8 0 2 0;
#X connect 9 0 12 0;
#X connect 10 0 1 0;
#X connect 10 1 9 0;
#X connect 13 0 14 0;
#X connect 14 0 15 0;
#X connect 16 0 13 1;
#X connect 17 0 10 0;
#X restore 334 408 pd insample1;
#X floatatom 453 432 5 0 0 0 - #0-samp2-msec -;
#N canvas 72 106 565 454 hann-window 0;
#N canvas 0 50 450 300 (subpatch) 0;
#X array \$0-hann 1024 float 0;
#X coords 0 1 1023 0 300 100 1;
#X restore 82 311 graph;
#X obj 378 165 osc~;
#X obj 378 190 *~ -0.5;
#X obj 378 214 +~ 0.5;
#X obj 331 247 tabwrite~ \$0-hann;
#X obj 37 88 r window-size;
#X obj 38 173 /;
#X obj 127 142 samplerate~;
#X obj 38 251 s window-sec;
#X obj 177 204 swap;
#X obj 177 228 /;
#X obj 177 252 s window-hz;
#X obj 49 201 * 1000;
#X obj 49 228 s window-msec;
#X obj 38 115 t f b f;
#X msg 173 92 resize \$1;
#X obj 173 116 s \$0-hann;
#X obj 330 105 r window-hz;
#X msg 382 130 0;
#X obj 330 131 t f b;
#X text 15 8 calculate Hann window table (variable window size) and
constants window-hz (fundamental frequency of analysis) \, window-sec
and window-msec (analysis window size in seconds and msec).;
#X connect 1 0 2 0;
#X connect 2 0 3 0;
#X connect 3 0 4 0;
#X connect 5 0 14 0;
#X connect 6 0 8 0;
#X connect 6 0 12 0;
#X connect 7 0 6 1;
#X connect 7 0 9 1;
#X connect 9 0 10 0;
#X connect 9 1 10 1;
#X connect 10 0 11 0;
#X connect 12 0 13 0;
#X connect 14 0 6 0;
#X connect 14 0 9 0;
#X connect 14 1 7 0;
#X connect 14 2 15 0;
#X connect 15 0 16 0;
#X connect 17 0 19 0;
#X connect 18 0 1 1;
#X connect 19 0 1 0;
#X connect 19 1 4 0;
#X connect 19 1 18 0;
#X restore 334 455 pd hann-window;
#X text 509 412 sample lengths \,;
#X text 510 427 msec;
#X text 27 35 This is a Fourier-based "vocoder" (perhaps better called
a "timbre stamp") like the one the Convolution brothers use. The "control
source" is analyzed to get its spectral envelope \, which is then stamped
onto the "filter input" by adjusting the amplitudes of its Fourier
transform. The "filter input" is first whitened by the compression
algorithm from the previous patch in this series. The best value of
"squelch" to use depends critically on what kind of sounds are used
for the filter input and the control source.;
#X text 402 498 updated for Pd version 0.39;
#X obj 232 567 dac~;
#X obj 546 25 bng 15 250 50 0 empty empty empty 17 7 0 10 -262144 -1
-1;
#X obj 551 81 openpanel;
#N canvas 0 50 450 250 (subpatch) 0;
#X array carrierFile 243065 float 0;
#X coords 0 1 243064 -1 200 140 1;
#X restore 533 237 graph;
#X obj 535 180 soundfiler;
#X msg 522 131 read -resize \$1 carrierFile;
#X obj 920 77 openpanel;
#X obj 904 176 soundfiler;
#X msg 891 127 read -resize \$1 infoFile;
#N canvas 0 50 450 250 (subpatch) 0;
#X array infoFile 240237 float 0;
#X coords 0 1 240236 -1 200 140 1 0 0;
#X restore 961 237 graph;
#X obj 919 38 bng 15 250 50 0 empty empty empty 17 7 0 10 -262144 -1
-1;
#X obj 761 257 bng 15 250 50 0 empty empty empty 17 7 0 10 -262144
-1 -1;
#X obj 1226 254 bng 15 250 50 0 empty empty empty 17 7 0 10 -262144
-1 -1;
#X obj 766 296 tabplay~ carrierFile;
#X obj 1221 289 tabplay~ infoFile;
#X obj 803 452 dac~;
#X obj 740 115 s \$0-samplength;
#X obj 730 154 /;
#X obj 730 178 * 1000;
#X obj 730 201 s \$0-samp-msec;
#X obj 768 154 r \$0-insamprate;
#X obj 1092 118 /;
#X obj 1092 142 * 1000;
#X obj 1102 79 s \$0-samplength2;
#X obj 1130 118 r \$0-insamprate2;
#X obj 1092 165 s \$0-samp2-msec;
#X obj 53 367 bng 15 250 50 0 empty empty empty 17 7 0 10 -262144 -1
-1;
#X msg 157 303 ~/gcw/vocode/example-media/donut.wav;
#X msg 373 330 ~/gcw/vocode/example-media/talking.wav;
#X obj 96 217 bng 15 250 50 0 empty empty empty 17 7 0 10 -262144 -1
-1;
#X text 94 195 Kick it off for real;
#X connect 0 0 8 0;
#X connect 0 0 8 1;
#X connect 0 0 31 0;
#X connect 6 0 7 0;
#X connect 9 0 11 0;
#X connect 10 0 11 0;
#X connect 12 0 14 0;
#X connect 13 0 14 0;
#X connect 19 0 21 0;
#X connect 20 0 21 1;
#X connect 21 0 0 0;
#X connect 21 1 0 2;
#X connect 32 0 33 0;
#X connect 33 0 36 0;
#X connect 35 0 47 0;
#X connect 35 1 48 0;
#X connect 36 0 35 0;
#X connect 37 0 39 0;
#X connect 38 0 54 0;
#X connect 38 1 52 0;
#X connect 39 0 38 0;
#X connect 41 0 37 0;
#X connect 42 0 44 0;
#X connect 43 0 45 0;
#X connect 44 0 46 0;
#X connect 44 1 46 1;
#X connect 45 0 46 0;
#X connect 45 1 46 1;
#X connect 48 0 49 0;
#X connect 49 0 50 0;
#X connect 51 0 48 1;
#X connect 52 0 53 0;
#X connect 53 0 56 0;
#X connect 55 0 52 1;
#X connect 57 0 21 0;
#X connect 57 0 21 1;
#X connect 58 0 11 0;
#X connect 59 0 14 0;
#X connect 60 0 58 0;
#X connect 60 0 59 0;
#X connect 60 0 0 1;
