#N canvas 378 139 1542 941 12;
#X obj 90 73 openpanel;
#X obj 76 30 bng 15 250 50 0 empty empty empty 17 7 0 10 -262144 -1
-1;
#X obj 99 146 soundfiler;
#X msg 96 109 read \$1 viewarray;
#N canvas 0 50 450 250 (subpatch) 0;
#X array viewarray 220500 float 2;
#X coords 0 1 220500 -1 1000 140 1 0 0;
#X restore 243 379 graph;
#X connect 0 0 3 0;
#X connect 1 0 0 0;
#X connect 3 0 2 0;
