#N canvas 190 106 1114 794 12;
#X obj 252 233 subpatch;
#X obj 249 408 out1~;
#X text 177 134 Fade out;
#X obj 201 157 bng 15 250 50 0 empty empty empty 17 7 0 10 -262144
-1 -1;
#X text 153 101 Fade in (milliseconds);
#X msg 126 131 500;
#N canvas 0 50 450 250 (subpatch) 0;
#X array src-array 190084 float 2;
#X coords 0 1 190084 -1 200 140 1 0 0;
#X restore 720 339 graph;
#X obj 147 358 dac~;
#X obj 365 109 bng 15 250 50 0 empty empty empty 17 7 0 10 -262144
-1 -1;
#X msg 369 172 -12;
#X msg 313 180 -24;
#X obj 537 170 subpatch;
#X text 462 71 Fade out;
#X obj 486 94 bng 15 250 50 0 empty empty empty 17 7 0 10 -262144 -1
-1;
#X text 438 38 Fade in (milliseconds);
#X msg 411 68 500;
#X obj 650 46 bng 15 250 50 0 empty empty empty 17 7 0 10 -262144 -1
-1;
#X obj 845 249 subpatch;
#X text 770 150 Fade out;
#X obj 794 173 bng 15 250 50 0 empty empty empty 17 7 0 10 -262144
-1 -1;
#X text 746 117 Fade in (milliseconds);
#X msg 748 160 500;
#X obj 958 125 bng 15 250 50 0 empty empty empty 17 7 0 10 -262144
-1 -1;
#X msg 906 196 -8;
#X msg 962 188 -19;
#X msg 598 117 -5;
#X msg 654 109 5;
#X obj 541 616 subpatch;
#X text 466 517 Fade out;
#X obj 490 540 bng 15 250 50 0 empty empty empty 17 7 0 10 -262144
-1 -1;
#X text 442 484 Fade in (milliseconds);
#X msg 432 507 500;
#X obj 654 492 bng 15 250 50 0 empty empty empty 17 7 0 10 -262144
-1 -1;
#X msg 602 563 -17;
#X msg 658 555 -7;
#X obj 434 253 *~ 0.5;
#X msg 303 142 720;
#X msg 588 79 720;
#X msg 896 158 720;
#X msg 592 525 720;
#X msg 430 195 8;
#X msg 678 147 8;
#X msg 1007 207 8;
#X msg 740 570 8;
#X connect 0 0 7 0;
#X connect 3 0 0 1;
#X connect 5 0 0 0;
#X connect 8 0 36 0;
#X connect 8 0 10 0;
#X connect 8 0 9 0;
#X connect 8 0 40 0;
#X connect 9 0 0 4;
#X connect 10 0 0 3;
#X connect 11 0 35 0;
#X connect 13 0 11 1;
#X connect 15 0 11 0;
#X connect 16 0 37 0;
#X connect 16 0 25 0;
#X connect 16 0 26 0;
#X connect 16 0 41 0;
#X connect 17 0 7 1;
#X connect 19 0 17 1;
#X connect 21 0 17 0;
#X connect 22 0 38 0;
#X connect 22 0 23 0;
#X connect 22 0 24 0;
#X connect 22 0 42 0;
#X connect 23 0 17 3;
#X connect 24 0 17 4;
#X connect 25 0 11 3;
#X connect 26 0 11 4;
#X connect 27 0 7 1;
#X connect 29 0 27 1;
#X connect 31 0 27 0;
#X connect 32 0 39 0;
#X connect 32 0 33 0;
#X connect 32 0 34 0;
#X connect 32 0 43 0;
#X connect 33 0 27 3;
#X connect 34 0 27 4;
#X connect 35 0 7 0;
#X connect 36 0 0 2;
#X connect 37 0 11 2;
#X connect 38 0 17 2;
#X connect 39 0 27 2;
#X connect 40 0 0 5;
#X connect 41 0 11 5;
#X connect 42 0 17 5;
#X connect 43 0 27 5;
