#N canvas 297 143 1282 739 12;
#X obj 727 316 soundfiler;
#X obj 642 208 bng 15 250 50 0 empty empty empty 17 7 0 10 -262144
-1 -1;
#X msg 741 256 read -resize single-chug.aiff src-array;
#X obj 122 606 tabread4~ src-array;
#X obj 151 62 bng 15 250 50 0 empty empty empty 17 7 0 10 -262144 -1
-1;
#X floatatom 260 214 5 0 0 0 - - -;
#X text 171 43 Index ticker;
#X floatatom 389 381 5 0 0 0 - - -;
#X floatatom 142 356 5 0 0 0 - - -;
#X obj 87 353 / 12;
#X floatatom 185 371 5 0 0 0 - - -;
#X floatatom 98 438 5 0 0 0 - - -;
#X obj 60 396 expr pow(2 \, $f1);
#X obj 121 521 phasor~;
#X obj 111 489 sig~;
#X obj 406 58 bng 15 250 50 0 empty empty empty 17 7 0 10 -262144 -1
-1;
#X obj 176 632 *~;
#X floatatom 365 696 5 0 0 0 - - -;
#X obj 557 656 snapshot~;
#X obj 622 585 metro 100;
#X obj 751 375 bng 15 250 50 0 empty empty empty 17 7 0 10 -262144
-1 -1;
#X obj 346 505 f;
#X floatatom 379 622 5 0 0 0 - - -;
#X floatatom 382 533 5 0 0 0 - - -;
#X obj 377 580 line 1 20;
#X obj 446 365 bng 15 250 50 0 empty empty empty 17 7 0 10 -262144
-1 -1;
#X msg 527 510 1000;
#X msg 466 486 0;
#X floatatom 340 368 5 0 0 0 - - -;
#X msg 322 403 \$1;
#X obj 153 686 outlet~;
#X obj 425 9 inlet;
#X obj 493 44 inlet;
#X msg 319 549 1;
#X obj 718 60 inlet;
#X obj 392 338 +;
#X obj 703 93 f;
#X floatatom 719 134 5 0 0 0 - - -;
#X obj 36 598 snapshot~;
#X floatatom 41 642 5 0 0 0 - - -;
#X obj 15 456 bng 15 250 50 0 empty empty empty 17 7 0 10 -262144 -1
-1;
#X obj 12 496 metro 100;
#X obj 293 31 loadbang;
#X floatatom 155 79 5 0 0 0 - - -;
#X floatatom 94 255 5 0 0 0 - - -;
#X msg 197 235 set \$1;
#X obj 69 181 bng 15 250 50 0 empty empty empty 17 7 0 10 -262144 -1
-1;
#X obj 123 553 *~;
#X msg 728 216 read -resize bagpipe-c.wav src-array;
#X obj 119 464 / 8;
#X obj 125 577 +~;
#X text 720 34 Pitch start;
#X obj 814 62 inlet;
#X text 818 34 Pitch end;
#X obj 809 92 f;
#X obj 564 35 inlet;
#X text 561 14 Pitch change length in beats;
#X obj 162 117 expr ($i1 + 1);
#X floatatom 551 299 5 0 0 0 - - -;
#X obj 791 130 -;
#X obj 335 213 /;
#X floatatom 270 278 5 0 0 0 - - -;
#X obj 564 71 f;
#X floatatom 557 103 5 0 0 0 - - -;
#X floatatom 800 166 5 0 0 0 - - -;
#X obj 384 303 *;
#X obj 287 249 moses 1;
#X msg 334 273 1;
#X obj 226 480 * 1;
#X obj 219 548 * 0;
#X obj 940 73 inlet;
#X text 930 47 Initial hold beats;
#X obj 933 105 f;
#X floatatom 933 129 5 0 0 0 - - -;
#X obj 245 146 -;
#X obj 253 170 moses 0;
#X msg 234 191 0;
#X obj 243 309 expr pow($f1 \, 3);
#X obj 43 204 delay 1 120 permin;
#X connect 0 0 68 0;
#X connect 0 0 69 0;
#X connect 1 0 48 0;
#X connect 3 0 16 0;
#X connect 4 0 43 0;
#X connect 5 0 60 0;
#X connect 9 0 8 0;
#X connect 9 0 12 0;
#X connect 11 0 49 0;
#X connect 12 0 11 0;
#X connect 13 0 47 0;
#X connect 14 0 13 0;
#X connect 15 0 1 0;
#X connect 15 0 20 0;
#X connect 16 0 18 0;
#X connect 16 0 30 0;
#X connect 18 0 17 0;
#X connect 19 0 18 0;
#X connect 20 0 19 0;
#X connect 21 0 23 0;
#X connect 21 0 24 1;
#X connect 24 0 16 1;
#X connect 24 0 22 0;
#X connect 25 0 27 0;
#X connect 25 0 26 0;
#X connect 26 0 24 1;
#X connect 27 0 24 0;
#X connect 28 0 29 0;
#X connect 29 0 33 0;
#X connect 29 0 21 0;
#X connect 31 0 28 0;
#X connect 31 0 4 0;
#X connect 32 0 25 0;
#X connect 33 0 24 0;
#X connect 34 0 36 0;
#X connect 35 0 7 0;
#X connect 35 0 9 0;
#X connect 36 0 35 1;
#X connect 36 0 37 0;
#X connect 36 0 59 1;
#X connect 38 0 39 0;
#X connect 40 0 41 0;
#X connect 41 0 38 0;
#X connect 42 0 15 0;
#X connect 43 0 57 0;
#X connect 44 0 57 0;
#X connect 45 0 44 0;
#X connect 46 0 78 0;
#X connect 47 0 50 0;
#X connect 48 0 0 0;
#X connect 49 0 14 0;
#X connect 50 0 3 0;
#X connect 50 0 38 0;
#X connect 52 0 54 0;
#X connect 54 0 59 0;
#X connect 55 0 62 0;
#X connect 57 0 45 0;
#X connect 57 0 46 0;
#X connect 57 0 74 0;
#X connect 59 0 64 0;
#X connect 60 0 66 0;
#X connect 61 0 77 0;
#X connect 62 0 60 1;
#X connect 62 0 63 0;
#X connect 64 0 65 1;
#X connect 65 0 58 0;
#X connect 65 0 35 0;
#X connect 66 0 61 0;
#X connect 66 1 67 0;
#X connect 67 0 61 0;
#X connect 68 0 47 1;
#X connect 69 0 50 1;
#X connect 70 0 72 0;
#X connect 72 0 73 0;
#X connect 73 0 74 1;
#X connect 74 0 75 0;
#X connect 75 0 76 0;
#X connect 75 1 5 0;
#X connect 76 0 5 0;
#X connect 77 0 65 0;
#X connect 78 0 44 0;
